<?xml version="1.0" encoding="UTF-8" standalone="no"?>
<!DOCTYPE svg PUBLIC "-//W3C//DTD SVG 1.1//EN"
 "http://www.w3.org/Graphics/SVG/1.1/DTD/svg11.dtd">
<!-- Generated by graphviz version 2.38.0 (20140413.2041)
 -->
<!-- Title: Core.h Pages: 1 -->
<svg width="264pt" height="84pt"
 viewBox="0.00 0.00 263.50 84.00" xmlns="http://www.w3.org/2000/svg" xmlns:xlink="http://www.w3.org/1999/xlink">
<g id="graph0" class="graph" transform="scale(1 1) rotate(0) translate(4 80)">
<title>Core.h</title>
<polygon fill="white" stroke="none" points="-4,4 -4,-80 259.5,-80 259.5,4 -4,4"/>
<!-- Node82 -->
<g id="node1" class="node"><title>Node82</title>
<polygon fill="#bfbfbf" stroke="black" points="102.5,-56.5 102.5,-75.5 147.5,-75.5 147.5,-56.5 102.5,-56.5"/>
<text text-anchor="middle" x="125" y="-63.5" font-family="Helvetica,sans-Serif" font-size="10.00">Core.h</text>
</g>
<!-- Node83 -->
<g id="node2" class="node"><title>Node83</title>
<g id="a_node2"><a xlink:href="$_core_8cpp.html" xlink:title="Ядро проекта. Содержит все главные и вспомогательные функции для определения марки автомобиля ...">
<polygon fill="white" stroke="black" points="0,-0.5 0,-19.5 56,-19.5 56,-0.5 0,-0.5"/>
<text text-anchor="middle" x="28" y="-7.5" font-family="Helvetica,sans-Serif" font-size="10.00">Core.cpp</text>
</a>
</g>
</g>
<!-- Node82&#45;&gt;Node83 -->
<g id="edge1" class="edge"><title>Node82&#45;&gt;Node83</title>
<path fill="none" stroke="midnightblue" d="M100.665,-51.4526C82.7574,-41.4835 58.9463,-28.2279 43.5461,-19.6545"/>
<polygon fill="midnightblue" stroke="midnightblue" points="98.9755,-54.5179 109.415,-56.324 102.38,-48.4018 98.9755,-54.5179"/>
</g>
<!-- Node84 -->
<g id="node3" class="node"><title>Node84</title>
<g id="a_node3"><a xlink:href="$_yenot_database_8cpp.html" xlink:title="Удобное добавление trainhaar.xml файлов ">
<polygon fill="white" stroke="black" points="74,-0.5 74,-19.5 176,-19.5 176,-0.5 74,-0.5"/>
<text text-anchor="middle" x="125" y="-7.5" font-family="Helvetica,sans-Serif" font-size="10.00">YenotDatabase.cpp</text>
</a>
</g>
</g>
<!-- Node82&#45;&gt;Node84 -->
<g id="edge2" class="edge"><title>Node82&#45;&gt;Node84</title>
<path fill="none" stroke="midnightblue" d="M125,-45.8045C125,-36.9102 125,-26.7798 125,-19.7511"/>
<polygon fill="midnightblue" stroke="midnightblue" points="121.5,-46.083 125,-56.083 128.5,-46.083 121.5,-46.083"/>
</g>
<!-- Node85 -->
<g id="node4" class="node"><title>Node85</title>
<g id="a_node4"><a xlink:href="$_yenot_8cpp.html" xlink:title="Основной задачей нашего проекта является разработка самообучающегося приложения для выделения и распо...">
<polygon fill="white" stroke="black" points="194.5,-0.5 194.5,-19.5 255.5,-19.5 255.5,-0.5 194.5,-0.5"/>
<text text-anchor="middle" x="225" y="-7.5" font-family="Helvetica,sans-Serif" font-size="10.00">Yenot.cpp</text>
</a>
</g>
</g>
<!-- Node82&#45;&gt;Node85 -->
<g id="edge3" class="edge"><title>Node82&#45;&gt;Node85</title>
<path fill="none" stroke="midnightblue" d="M150.088,-51.4526C168.549,-41.4835 193.097,-28.2279 208.973,-19.6545"/>
<polygon fill="midnightblue" stroke="midnightblue" points="148.203,-48.4928 141.067,-56.324 151.529,-54.6521 148.203,-48.4928"/>
</g>
</g>
</svg>
