<?xml version="1.0" encoding="UTF-8" standalone="no"?>
<!DOCTYPE svg PUBLIC "-//W3C//DTD SVG 1.1//EN"
 "http://www.w3.org/Graphics/SVG/1.1/DTD/svg11.dtd">
<!-- Generated by graphviz version 2.38.0 (20140413.2041)
 -->
<!-- Title: Core.cpp Pages: 1 -->
<svg width="996pt" height="140pt"
 viewBox="0.00 0.00 995.50 140.00" xmlns="http://www.w3.org/2000/svg" xmlns:xlink="http://www.w3.org/1999/xlink">
<g id="graph0" class="graph" transform="scale(1 1) rotate(0) translate(4 136)">
<title>Core.cpp</title>
<polygon fill="white" stroke="none" points="-4,4 -4,-136 991.5,-136 991.5,4 -4,4"/>
<!-- Node54 -->
<g id="node1" class="node"><title>Node54</title>
<polygon fill="#bfbfbf" stroke="black" points="555.5,-112.5 555.5,-131.5 611.5,-131.5 611.5,-112.5 555.5,-112.5"/>
<text text-anchor="middle" x="583.5" y="-119.5" font-family="Helvetica,sans-Serif" font-size="10.00">Core.cpp</text>
</g>
<!-- Node55 -->
<g id="node2" class="node"><title>Node55</title>
<polygon fill="white" stroke="#bfbfbf" points="0,-56.5 0,-75.5 65,-75.5 65,-56.5 0,-56.5"/>
<text text-anchor="middle" x="32.5" y="-63.5" font-family="Helvetica,sans-Serif" font-size="10.00">Windows.h</text>
</g>
<!-- Node54&#45;&gt;Node55 -->
<g id="edge1" class="edge"><title>Node54&#45;&gt;Node55</title>
<path fill="none" stroke="midnightblue" d="M555.493,-119.735C479.764,-116.058 264.49,-103.913 75.5599,-75.9746"/>
<polygon fill="midnightblue" stroke="midnightblue" points="75.8529,-72.4796 65.4448,-74.4598 74.8161,-79.4023 75.8529,-72.4796"/>
</g>
<!-- Node56 -->
<g id="node3" class="node"><title>Node56</title>
<polygon fill="white" stroke="#bfbfbf" points="83,-56.5 83,-75.5 132,-75.5 132,-56.5 83,-56.5"/>
<text text-anchor="middle" x="107.5" y="-63.5" font-family="Helvetica,sans-Serif" font-size="10.00">fstream</text>
</g>
<!-- Node54&#45;&gt;Node56 -->
<g id="edge2" class="edge"><title>Node54&#45;&gt;Node56</title>
<path fill="none" stroke="midnightblue" d="M555.36,-119.673C486.506,-116.102 303.998,-104.67 142.402,-75.8734"/>
<polygon fill="midnightblue" stroke="midnightblue" points="142.744,-72.3785 132.281,-74.0417 141.498,-79.2667 142.744,-72.3785"/>
</g>
<!-- Node57 -->
<g id="node4" class="node"><title>Node57</title>
<polygon fill="white" stroke="#bfbfbf" points="150,-56.5 150,-75.5 191,-75.5 191,-56.5 150,-56.5"/>
<text text-anchor="middle" x="170.5" y="-63.5" font-family="Helvetica,sans-Serif" font-size="10.00">string</text>
</g>
<!-- Node54&#45;&gt;Node57 -->
<g id="edge3" class="edge"><title>Node54&#45;&gt;Node57</title>
<path fill="none" stroke="midnightblue" d="M555.359,-119.38C493.123,-115.44 339.066,-103.721 200.951,-75.7199"/>
<polygon fill="midnightblue" stroke="midnightblue" points="201.536,-72.2671 191.036,-73.6756 200.123,-79.1229 201.536,-72.2671"/>
</g>
<!-- Node58 -->
<g id="node5" class="node"><title>Node58</title>
<polygon fill="white" stroke="#bfbfbf" points="209.5,-56.5 209.5,-75.5 355.5,-75.5 355.5,-56.5 209.5,-56.5"/>
<text text-anchor="middle" x="282.5" y="-63.5" font-family="Helvetica,sans-Serif" font-size="10.00">opencv2/imgproc/imgproc.hpp</text>
</g>
<!-- Node54&#45;&gt;Node58 -->
<g id="edge4" class="edge"><title>Node54&#45;&gt;Node58</title>
<path fill="none" stroke="midnightblue" d="M555.453,-115.968C506.482,-107.183 404.463,-88.8805 339.962,-77.3088"/>
<polygon fill="midnightblue" stroke="midnightblue" points="340.407,-73.8329 329.946,-75.512 339.171,-80.7229 340.407,-73.8329"/>
</g>
<!-- Node59 -->
<g id="node6" class="node"><title>Node59</title>
<polygon fill="white" stroke="#bfbfbf" points="373.5,-56.5 373.5,-75.5 511.5,-75.5 511.5,-56.5 373.5,-56.5"/>
<text text-anchor="middle" x="442.5" y="-63.5" font-family="Helvetica,sans-Serif" font-size="10.00">opencv2/highgui/highgui_c.h</text>
</g>
<!-- Node54&#45;&gt;Node59 -->
<g id="edge5" class="edge"><title>Node54&#45;&gt;Node59</title>
<path fill="none" stroke="midnightblue" d="M561.158,-112.444C537.747,-103.478 500.764,-89.314 474.31,-79.1827"/>
<polygon fill="midnightblue" stroke="midnightblue" points="475.328,-75.8245 464.737,-75.5164 472.824,-82.3615 475.328,-75.8245"/>
</g>
<!-- Node60 -->
<g id="node7" class="node"><title>Node60</title>
<polygon fill="white" stroke="#bfbfbf" points="530,-56.5 530,-75.5 575,-75.5 575,-56.5 530,-56.5"/>
<text text-anchor="middle" x="552.5" y="-63.5" font-family="Helvetica,sans-Serif" font-size="10.00">cstdlib</text>
</g>
<!-- Node54&#45;&gt;Node60 -->
<g id="edge6" class="edge"><title>Node54&#45;&gt;Node60</title>
<path fill="none" stroke="midnightblue" d="M578.381,-112.083C574.092,-104.613 567.842,-93.7244 562.558,-84.5199"/>
<polygon fill="midnightblue" stroke="midnightblue" points="565.538,-82.6811 557.524,-75.7511 559.467,-86.1662 565.538,-82.6811"/>
</g>
<!-- Node61 -->
<g id="node8" class="node"><title>Node61</title>
<polygon fill="white" stroke="#bfbfbf" points="593,-56.5 593,-75.5 636,-75.5 636,-56.5 593,-56.5"/>
<text text-anchor="middle" x="614.5" y="-63.5" font-family="Helvetica,sans-Serif" font-size="10.00">cstdio</text>
</g>
<!-- Node54&#45;&gt;Node61 -->
<g id="edge7" class="edge"><title>Node54&#45;&gt;Node61</title>
<path fill="none" stroke="midnightblue" d="M588.619,-112.083C592.908,-104.613 599.158,-93.7244 604.442,-84.5199"/>
<polygon fill="midnightblue" stroke="midnightblue" points="607.533,-86.1662 609.476,-75.7511 601.462,-82.6811 607.533,-86.1662"/>
</g>
<!-- Node62 -->
<g id="node9" class="node"><title>Node62</title>
<polygon fill="white" stroke="#bfbfbf" points="654,-56.5 654,-75.5 703,-75.5 703,-56.5 654,-56.5"/>
<text text-anchor="middle" x="678.5" y="-63.5" font-family="Helvetica,sans-Serif" font-size="10.00">direct.h</text>
</g>
<!-- Node54&#45;&gt;Node62 -->
<g id="edge8" class="edge"><title>Node54&#45;&gt;Node62</title>
<path fill="none" stroke="midnightblue" d="M598.763,-112.324C613.721,-103.822 636.755,-90.7288 654.227,-80.7975"/>
<polygon fill="midnightblue" stroke="midnightblue" points="656.31,-83.639 663.274,-75.6545 652.851,-77.5534 656.31,-83.639"/>
</g>
<!-- Node63 -->
<g id="node10" class="node"><title>Node63</title>
<polygon fill="white" stroke="#bfbfbf" points="721.5,-56.5 721.5,-75.5 763.5,-75.5 763.5,-56.5 721.5,-56.5"/>
<text text-anchor="middle" x="742.5" y="-63.5" font-family="Helvetica,sans-Serif" font-size="10.00">vector</text>
</g>
<!-- Node54&#45;&gt;Node63 -->
<g id="edge9" class="edge"><title>Node54&#45;&gt;Node63</title>
<path fill="none" stroke="midnightblue" d="M608.694,-112.444C636.701,-102.932 681.934,-87.5697 711.94,-77.3787"/>
<polygon fill="midnightblue" stroke="midnightblue" points="713.143,-80.6668 721.486,-74.1368 710.892,-74.0386 713.143,-80.6668"/>
</g>
<!-- Node64 -->
<g id="node11" class="node"><title>Node64</title>
<g id="a_node11"><a xlink:href="$_yenot_8h.html" xlink:title=":D ">
<polygon fill="white" stroke="black" points="781.5,-56.5 781.5,-75.5 831.5,-75.5 831.5,-56.5 781.5,-56.5"/>
<text text-anchor="middle" x="806.5" y="-63.5" font-family="Helvetica,sans-Serif" font-size="10.00">Yenot.h</text>
</a>
</g>
</g>
<!-- Node54&#45;&gt;Node64 -->
<g id="edge10" class="edge"><title>Node54&#45;&gt;Node64</title>
<path fill="none" stroke="midnightblue" d="M611.732,-114.51C646.844,-106.389 708.868,-91.878 771.255,-76.2683"/>
<polygon fill="midnightblue" stroke="midnightblue" points="772.421,-79.5844 781.267,-73.7544 770.716,-72.7952 772.421,-79.5844"/>
</g>
<!-- Node66 -->
<g id="node13" class="node"><title>Node66</title>
<g id="a_node13"><a xlink:href="$_core_8h.html" xlink:title="ќписание ">
<polygon fill="white" stroke="black" points="850,-56.5 850,-75.5 895,-75.5 895,-56.5 850,-56.5"/>
<text text-anchor="middle" x="872.5" y="-63.5" font-family="Helvetica,sans-Serif" font-size="10.00">Core.h</text>
</a>
</g>
</g>
<!-- Node54&#45;&gt;Node66 -->
<g id="edge12" class="edge"><title>Node54&#45;&gt;Node66</title>
<path fill="none" stroke="midnightblue" d="M611.827,-116.996C657.657,-110.312 751.058,-95.841 839.88,-75.9372"/>
<polygon fill="midnightblue" stroke="midnightblue" points="840.869,-79.3018 849.847,-73.676 839.32,-72.4752 840.869,-79.3018"/>
</g>
<!-- Node67 -->
<g id="node14" class="node"><title>Node67</title>
<g id="a_node14"><a xlink:href="$_logger_8h.html" xlink:title="Заголовочный файл модуля логирования ">
<polygon fill="white" stroke="black" points="913.5,-56.5 913.5,-75.5 987.5,-75.5 987.5,-56.5 913.5,-56.5"/>
<text text-anchor="middle" x="950.5" y="-63.5" font-family="Helvetica,sans-Serif" font-size="10.00">..\io\Logger.h</text>
</a>
</g>
</g>
<!-- Node54&#45;&gt;Node67 -->
<g id="edge14" class="edge"><title>Node54&#45;&gt;Node67</title>
<path fill="none" stroke="midnightblue" d="M611.919,-117.539C666.417,-110.79 789.595,-94.9943 903.445,-76.1017"/>
<polygon fill="midnightblue" stroke="midnightblue" points="904.088,-79.5429 913.374,-74.4421 902.934,-72.6387 904.088,-79.5429"/>
</g>
<!-- Node65 -->
<g id="node12" class="node"><title>Node65</title>
<polygon fill="white" stroke="#bfbfbf" points="787.5,-0.5 787.5,-19.5 891.5,-19.5 891.5,-0.5 787.5,-0.5"/>
<text text-anchor="middle" x="839.5" y="-7.5" font-family="Helvetica,sans-Serif" font-size="10.00">opencv2/opencv.hpp</text>
</g>
<!-- Node64&#45;&gt;Node65 -->
<g id="edge11" class="edge"><title>Node64&#45;&gt;Node65</title>
<path fill="none" stroke="midnightblue" d="M811.949,-56.083C816.514,-48.6127 823.168,-37.7244 828.793,-28.5199"/>
<polygon fill="midnightblue" stroke="midnightblue" points="831.924,-30.109 834.152,-19.7511 825.951,-26.4588 831.924,-30.109"/>
</g>
<!-- Node66&#45;&gt;Node65 -->
<g id="edge13" class="edge"><title>Node66&#45;&gt;Node65</title>
<path fill="none" stroke="midnightblue" d="M867.051,-56.083C862.486,-48.6127 855.832,-37.7244 850.207,-28.5199"/>
<polygon fill="midnightblue" stroke="midnightblue" points="853.049,-26.4588 844.848,-19.7511 847.076,-30.109 853.049,-26.4588"/>
</g>
</g>
</svg>
