<?xml version="1.0" encoding="UTF-8" standalone="no"?>
<!DOCTYPE svg PUBLIC "-//W3C//DTD SVG 1.1//EN"
 "http://www.w3.org/Graphics/SVG/1.1/DTD/svg11.dtd">
<!-- Generated by graphviz version 2.38.0 (20140413.2041)
 -->
<!-- Title: Logger.cpp Pages: 1 -->
<svg width="350pt" height="140pt"
 viewBox="0.00 0.00 349.50 140.00" xmlns="http://www.w3.org/2000/svg" xmlns:xlink="http://www.w3.org/1999/xlink">
<g id="graph0" class="graph" transform="scale(1 1) rotate(0) translate(4 136)">
<title>Logger.cpp</title>
<polygon fill="white" stroke="none" points="-4,4 -4,-136 345.5,-136 345.5,4 -4,4"/>
<!-- Node86 -->
<g id="node1" class="node"><title>Node86</title>
<polygon fill="#bfbfbf" stroke="black" points="116,-112.5 116,-131.5 181,-131.5 181,-112.5 116,-112.5"/>
<text text-anchor="middle" x="148.5" y="-119.5" font-family="Helvetica,sans-Serif" font-size="10.00">Logger.cpp</text>
</g>
<!-- Node87 -->
<g id="node2" class="node"><title>Node87</title>
<polygon fill="white" stroke="#bfbfbf" points="0,-56.5 0,-75.5 65,-75.5 65,-56.5 0,-56.5"/>
<text text-anchor="middle" x="32.5" y="-63.5" font-family="Helvetica,sans-Serif" font-size="10.00">Windows.h</text>
</g>
<!-- Node86&#45;&gt;Node87 -->
<g id="edge1" class="edge"><title>Node86&#45;&gt;Node87</title>
<path fill="none" stroke="midnightblue" d="M130.119,-112.444C111.284,-103.675 81.7688,-89.9355 60.1207,-79.8579"/>
<polygon fill="midnightblue" stroke="midnightblue" points="61.3375,-76.5637 50.7946,-75.5164 58.3833,-82.9098 61.3375,-76.5637"/>
</g>
<!-- Node88 -->
<g id="node3" class="node"><title>Node88</title>
<polygon fill="white" stroke="#bfbfbf" points="83,-56.5 83,-75.5 132,-75.5 132,-56.5 83,-56.5"/>
<text text-anchor="middle" x="107.5" y="-63.5" font-family="Helvetica,sans-Serif" font-size="10.00">fstream</text>
</g>
<!-- Node86&#45;&gt;Node88 -->
<g id="edge2" class="edge"><title>Node86&#45;&gt;Node88</title>
<path fill="none" stroke="midnightblue" d="M141.73,-112.083C135.938,-104.455 127.442,-93.2645 120.362,-83.9408"/>
<polygon fill="midnightblue" stroke="midnightblue" points="122.979,-81.5991 114.144,-75.7511 117.404,-85.8321 122.979,-81.5991"/>
</g>
<!-- Node89 -->
<g id="node4" class="node"><title>Node89</title>
<g id="a_node4"><a xlink:href="$_yenot_8h.html" xlink:title="Заголовочный файл с пространством имён, которое хранит в себе константы. ">
<polygon fill="white" stroke="black" points="150,-56.5 150,-75.5 231,-75.5 231,-56.5 150,-56.5"/>
<text text-anchor="middle" x="190.5" y="-63.5" font-family="Helvetica,sans-Serif" font-size="10.00">..\core\Yenot.h</text>
</a>
</g>
</g>
<!-- Node86&#45;&gt;Node89 -->
<g id="edge3" class="edge"><title>Node86&#45;&gt;Node89</title>
<path fill="none" stroke="midnightblue" d="M155.435,-112.083C161.429,-104.377 170.252,-93.0333 177.548,-83.6531"/>
<polygon fill="midnightblue" stroke="midnightblue" points="180.317,-85.7934 183.694,-75.7511 174.791,-81.4958 180.317,-85.7934"/>
</g>
<!-- Node90 -->
<g id="node5" class="node"><title>Node90</title>
<g id="a_node5"><a xlink:href="$_settings_8h.html" xlink:title="Заголовочный файл модуля работы с ini файлами ">
<polygon fill="white" stroke="black" points="249.5,-56.5 249.5,-75.5 341.5,-75.5 341.5,-56.5 249.5,-56.5"/>
<text text-anchor="middle" x="295.5" y="-63.5" font-family="Helvetica,sans-Serif" font-size="10.00">..\core\Settings.h</text>
</a>
</g>
</g>
<!-- Node86&#45;&gt;Node90 -->
<g id="edge4" class="edge"><title>Node86&#45;&gt;Node90</title>
<path fill="none" stroke="midnightblue" d="M171.793,-112.444C196.307,-103.438 235.096,-89.1891 262.7,-79.049"/>
<polygon fill="midnightblue" stroke="midnightblue" points="264.137,-82.25 272.316,-75.5164 261.723,-75.6793 264.137,-82.25"/>
</g>
<!-- Node91 -->
<g id="node6" class="node"><title>Node91</title>
<polygon fill="white" stroke="#bfbfbf" points="275,-0.5 275,-19.5 316,-19.5 316,-0.5 275,-0.5"/>
<text text-anchor="middle" x="295.5" y="-7.5" font-family="Helvetica,sans-Serif" font-size="10.00">string</text>
</g>
<!-- Node90&#45;&gt;Node91 -->
<g id="edge5" class="edge"><title>Node90&#45;&gt;Node91</title>
<path fill="none" stroke="midnightblue" d="M295.5,-56.083C295.5,-49.0059 295.5,-38.8611 295.5,-29.9865"/>
<polygon fill="midnightblue" stroke="midnightblue" points="299,-29.751 295.5,-19.7511 292,-29.7511 299,-29.751"/>
</g>
</g>
</svg>
