<?xml version="1.0" encoding="UTF-8" standalone="no"?>
<!DOCTYPE svg PUBLIC "-//W3C//DTD SVG 1.1//EN"
 "http://www.w3.org/Graphics/SVG/1.1/DTD/svg11.dtd">
<!-- Generated by graphviz version 2.38.0 (20140413.2041)
 -->
<!-- Title: Logger.h Pages: 1 -->
<svg width="233pt" height="84pt"
 viewBox="0.00 0.00 232.50 84.00" xmlns="http://www.w3.org/2000/svg" xmlns:xlink="http://www.w3.org/1999/xlink">
<g id="graph0" class="graph" transform="scale(1 1) rotate(0) translate(4 80)">
<title>Logger.h</title>
<polygon fill="white" stroke="none" points="-4,4 -4,-80 228.5,-80 228.5,4 -4,4"/>
<!-- Node80 -->
<g id="node1" class="node"><title>Node80</title>
<polygon fill="#bfbfbf" stroke="black" points="83,-56.5 83,-75.5 137,-75.5 137,-56.5 83,-56.5"/>
<text text-anchor="middle" x="110" y="-63.5" font-family="Helvetica,sans-Serif" font-size="10.00">Logger.h</text>
</g>
<!-- Node81 -->
<g id="node2" class="node"><title>Node81</title>
<g id="a_node2"><a xlink:href="$_core_8cpp.html" xlink:title="Ядро проекта. Содержит все главные и вспомогательные функции для определения марки автомобиля ...">
<polygon fill="white" stroke="black" points="0,-0.5 0,-19.5 56,-19.5 56,-0.5 0,-0.5"/>
<text text-anchor="middle" x="28" y="-7.5" font-family="Helvetica,sans-Serif" font-size="10.00">Core.cpp</text>
</a>
</g>
</g>
<!-- Node80&#45;&gt;Node81 -->
<g id="edge1" class="edge"><title>Node80&#45;&gt;Node81</title>
<path fill="none" stroke="midnightblue" d="M88.1669,-50.6221C73.1871,-40.7574 53.8025,-27.9919 41.142,-19.6545"/>
<polygon fill="midnightblue" stroke="midnightblue" points="86.5486,-53.7471 96.8253,-56.324 90.3985,-47.9009 86.5486,-53.7471"/>
</g>
<!-- Node82 -->
<g id="node3" class="node"><title>Node82</title>
<g id="a_node3"><a xlink:href="$_settings_8cpp.html" xlink:title="Модуль работы с ini файлами ">
<polygon fill="white" stroke="black" points="74.5,-0.5 74.5,-19.5 145.5,-19.5 145.5,-0.5 74.5,-0.5"/>
<text text-anchor="middle" x="110" y="-7.5" font-family="Helvetica,sans-Serif" font-size="10.00">Settings.cpp</text>
</a>
</g>
</g>
<!-- Node80&#45;&gt;Node82 -->
<g id="edge2" class="edge"><title>Node80&#45;&gt;Node82</title>
<path fill="none" stroke="midnightblue" d="M110,-45.8045C110,-36.9102 110,-26.7798 110,-19.7511"/>
<polygon fill="midnightblue" stroke="midnightblue" points="106.5,-46.083 110,-56.083 113.5,-46.083 106.5,-46.083"/>
</g>
<!-- Node83 -->
<g id="node4" class="node"><title>Node83</title>
<g id="a_node4"><a xlink:href="$_yenot_8cpp.html" xlink:title="Основной задачей нашего проекта является разработка самообучающегося приложения для выделения и распо...">
<polygon fill="white" stroke="black" points="163.5,-0.5 163.5,-19.5 224.5,-19.5 224.5,-0.5 163.5,-0.5"/>
<text text-anchor="middle" x="194" y="-7.5" font-family="Helvetica,sans-Serif" font-size="10.00">Yenot.cpp</text>
</a>
</g>
</g>
<!-- Node80&#45;&gt;Node83 -->
<g id="edge3" class="edge"><title>Node80&#45;&gt;Node83</title>
<path fill="none" stroke="midnightblue" d="M131.932,-50.9005C147.335,-40.9986 167.446,-28.0705 180.537,-19.6545"/>
<polygon fill="midnightblue" stroke="midnightblue" points="130.015,-47.9722 123.496,-56.324 133.801,-53.8605 130.015,-47.9722"/>
</g>
</g>
</svg>
