<?xml version="1.0" encoding="UTF-8" standalone="no"?>
<!DOCTYPE svg PUBLIC "-//W3C//DTD SVG 1.1//EN"
 "http://www.w3.org/Graphics/SVG/1.1/DTD/svg11.dtd">
<!-- Generated by graphviz version 2.38.0 (20140413.2041)
 -->
<!-- Title: Logger.cpp Pages: 1 -->
<svg width="527pt" height="140pt"
 viewBox="0.00 0.00 526.50 140.00" xmlns="http://www.w3.org/2000/svg" xmlns:xlink="http://www.w3.org/1999/xlink">
<g id="graph0" class="graph" transform="scale(1 1) rotate(0) translate(4 136)">
<title>Logger.cpp</title>
<polygon fill="white" stroke="none" points="-4,4 -4,-136 522.5,-136 522.5,4 -4,4"/>
<!-- Node75 -->
<g id="node1" class="node"><title>Node75</title>
<polygon fill="#bfbfbf" stroke="black" points="197,-112.5 197,-131.5 262,-131.5 262,-112.5 197,-112.5"/>
<text text-anchor="middle" x="229.5" y="-119.5" font-family="Helvetica,sans-Serif" font-size="10.00">Logger.cpp</text>
</g>
<!-- Node76 -->
<g id="node2" class="node"><title>Node76</title>
<polygon fill="white" stroke="#bfbfbf" points="0,-56.5 0,-75.5 41,-75.5 41,-56.5 0,-56.5"/>
<text text-anchor="middle" x="20.5" y="-63.5" font-family="Helvetica,sans-Serif" font-size="10.00">string</text>
</g>
<!-- Node75&#45;&gt;Node76 -->
<g id="edge1" class="edge"><title>Node75&#45;&gt;Node76</title>
<path fill="none" stroke="midnightblue" d="M196.838,-113.415C162.641,-105.347 107.171,-91.9013 50.8351,-76.2687"/>
<polygon fill="midnightblue" stroke="midnightblue" points="51.6261,-72.8557 41.053,-73.5342 49.7415,-79.5972 51.6261,-72.8557"/>
</g>
<!-- Node77 -->
<g id="node3" class="node"><title>Node77</title>
<polygon fill="white" stroke="#bfbfbf" points="59,-56.5 59,-75.5 108,-75.5 108,-56.5 59,-56.5"/>
<text text-anchor="middle" x="83.5" y="-63.5" font-family="Helvetica,sans-Serif" font-size="10.00">fstream</text>
</g>
<!-- Node75&#45;&gt;Node77 -->
<g id="edge2" class="edge"><title>Node75&#45;&gt;Node77</title>
<path fill="none" stroke="midnightblue" d="M206.366,-112.444C182.018,-103.438 143.493,-89.1891 116.077,-79.049"/>
<polygon fill="midnightblue" stroke="midnightblue" points="117.119,-75.7028 106.526,-75.5164 114.691,-82.2681 117.119,-75.7028"/>
</g>
<!-- Node78 -->
<g id="node4" class="node"><title>Node78</title>
<polygon fill="white" stroke="#bfbfbf" points="126.5,-56.5 126.5,-75.5 188.5,-75.5 188.5,-56.5 126.5,-56.5"/>
<text text-anchor="middle" x="157.5" y="-63.5" font-family="Helvetica,sans-Serif" font-size="10.00">windows.h</text>
</g>
<!-- Node75&#45;&gt;Node78 -->
<g id="edge3" class="edge"><title>Node75&#45;&gt;Node78</title>
<path fill="none" stroke="midnightblue" d="M217.932,-112.324C207.08,-104.185 190.619,-91.8395 177.617,-82.0874"/>
<polygon fill="midnightblue" stroke="midnightblue" points="179.379,-79.0339 169.279,-75.8339 175.179,-84.6339 179.379,-79.0339"/>
</g>
<!-- Node79 -->
<g id="node5" class="node"><title>Node79</title>
<polygon fill="white" stroke="#bfbfbf" points="206.5,-56.5 206.5,-75.5 252.5,-75.5 252.5,-56.5 206.5,-56.5"/>
<text text-anchor="middle" x="229.5" y="-63.5" font-family="Helvetica,sans-Serif" font-size="10.00">stdio.h</text>
</g>
<!-- Node75&#45;&gt;Node79 -->
<g id="edge4" class="edge"><title>Node75&#45;&gt;Node79</title>
<path fill="none" stroke="midnightblue" d="M229.5,-112.083C229.5,-105.006 229.5,-94.8611 229.5,-85.9865"/>
<polygon fill="midnightblue" stroke="midnightblue" points="233,-85.751 229.5,-75.7511 226,-85.7511 233,-85.751"/>
</g>
<!-- Node80 -->
<g id="node6" class="node"><title>Node80</title>
<polygon fill="white" stroke="#bfbfbf" points="270.5,-56.5 270.5,-75.5 324.5,-75.5 324.5,-56.5 270.5,-56.5"/>
<text text-anchor="middle" x="297.5" y="-63.5" font-family="Helvetica,sans-Serif" font-size="10.00">iostream</text>
</g>
<!-- Node75&#45;&gt;Node80 -->
<g id="edge5" class="edge"><title>Node75&#45;&gt;Node80</title>
<path fill="none" stroke="midnightblue" d="M240.425,-112.324C250.675,-104.185 266.221,-91.8395 278.501,-82.0874"/>
<polygon fill="midnightblue" stroke="midnightblue" points="280.721,-84.7937 286.376,-75.8339 276.368,-79.3119 280.721,-84.7937"/>
</g>
<!-- Node81 -->
<g id="node7" class="node"><title>Node81</title>
<g id="a_node7"><a xlink:href="$_yenot_8h.html" xlink:title=":D ">
<polygon fill="white" stroke="black" points="343,-56.5 343,-75.5 424,-75.5 424,-56.5 343,-56.5"/>
<text text-anchor="middle" x="383.5" y="-63.5" font-family="Helvetica,sans-Serif" font-size="10.00">..\core\Yenot.h</text>
</a>
</g>
</g>
<!-- Node75&#45;&gt;Node81 -->
<g id="edge6" class="edge"><title>Node75&#45;&gt;Node81</title>
<path fill="none" stroke="midnightblue" d="M253.902,-112.444C279.697,-103.399 320.577,-89.064 349.518,-78.9158"/>
<polygon fill="midnightblue" stroke="midnightblue" points="350.934,-82.1283 359.212,-75.5164 348.618,-75.5226 350.934,-82.1283"/>
</g>
<!-- Node83 -->
<g id="node9" class="node"><title>Node83</title>
<g id="a_node9"><a xlink:href="$_core_8h.html" xlink:title="ќписание ">
<polygon fill="white" stroke="black" points="442.5,-56.5 442.5,-75.5 518.5,-75.5 518.5,-56.5 442.5,-56.5"/>
<text text-anchor="middle" x="480.5" y="-63.5" font-family="Helvetica,sans-Serif" font-size="10.00">..\core\Core.h</text>
</a>
</g>
</g>
<!-- Node75&#45;&gt;Node83 -->
<g id="edge8" class="edge"><title>Node75&#45;&gt;Node83</title>
<path fill="none" stroke="midnightblue" d="M262.057,-113.996C305.366,-104.678 382.272,-88.1326 432.313,-77.3669"/>
<polygon fill="midnightblue" stroke="midnightblue" points="433.213,-80.7535 442.253,-75.2284 431.741,-73.91 433.213,-80.7535"/>
</g>
<!-- Node82 -->
<g id="node8" class="node"><title>Node82</title>
<polygon fill="white" stroke="#bfbfbf" points="379.5,-0.5 379.5,-19.5 483.5,-19.5 483.5,-0.5 379.5,-0.5"/>
<text text-anchor="middle" x="431.5" y="-7.5" font-family="Helvetica,sans-Serif" font-size="10.00">opencv2/opencv.hpp</text>
</g>
<!-- Node81&#45;&gt;Node82 -->
<g id="edge7" class="edge"><title>Node81&#45;&gt;Node82</title>
<path fill="none" stroke="midnightblue" d="M391.426,-56.083C398.346,-48.2982 408.565,-36.8015 416.952,-27.3665"/>
<polygon fill="midnightblue" stroke="midnightblue" points="419.694,-29.5505 423.721,-19.7511 414.462,-24.8999 419.694,-29.5505"/>
</g>
<!-- Node83&#45;&gt;Node82 -->
<g id="edge9" class="edge"><title>Node83&#45;&gt;Node82</title>
<path fill="none" stroke="midnightblue" d="M472.409,-56.083C465.345,-48.2982 454.912,-36.8015 446.351,-27.3665"/>
<polygon fill="midnightblue" stroke="midnightblue" points="448.753,-24.8047 439.441,-19.7511 443.569,-29.5087 448.753,-24.8047"/>
</g>
</g>
</svg>
