<?xml version="1.0" encoding="UTF-8" standalone="no"?>
<!DOCTYPE svg PUBLIC "-//W3C//DTD SVG 1.1//EN"
 "http://www.w3.org/Graphics/SVG/1.1/DTD/svg11.dtd">
<!-- Generated by graphviz version 2.38.0 (20140413.2041)
 -->
<!-- Title: Yenot.h Pages: 1 -->
<svg width="227pt" height="84pt"
 viewBox="0.00 0.00 226.50 84.00" xmlns="http://www.w3.org/2000/svg" xmlns:xlink="http://www.w3.org/1999/xlink">
<g id="graph0" class="graph" transform="scale(1 1) rotate(0) translate(4 80)">
<title>Yenot.h</title>
<polygon fill="white" stroke="none" points="-4,4 -4,-80 222.5,-80 222.5,4 -4,4"/>
<!-- Node104 -->
<g id="node1" class="node"><title>Node104</title>
<polygon fill="#bfbfbf" stroke="black" points="80,-56.5 80,-75.5 130,-75.5 130,-56.5 80,-56.5"/>
<text text-anchor="middle" x="105" y="-63.5" font-family="Helvetica,sans-Serif" font-size="10.00">Yenot.h</text>
</g>
<!-- Node105 -->
<g id="node2" class="node"><title>Node105</title>
<g id="a_node2"><a xlink:href="$_core_8cpp.html" xlink:title="Ядро проекта. Содержит все главные и вспомогательные функции для определения марки автомобиля ...">
<polygon fill="white" stroke="black" points="0,-0.5 0,-19.5 56,-19.5 56,-0.5 0,-0.5"/>
<text text-anchor="middle" x="28" y="-7.5" font-family="Helvetica,sans-Serif" font-size="10.00">Core.cpp</text>
</a>
</g>
</g>
<!-- Node104&#45;&gt;Node105 -->
<g id="edge1" class="edge"><title>Node104&#45;&gt;Node105</title>
<path fill="none" stroke="midnightblue" d="M84.099,-50.3422C70.0889,-40.5169 52.117,-27.9132 40.3407,-19.6545"/>
<polygon fill="midnightblue" stroke="midnightblue" points="82.4317,-53.4477 92.6286,-56.324 86.4509,-47.7166 82.4317,-53.4477"/>
</g>
<!-- Node106 -->
<g id="node3" class="node"><title>Node106</title>
<g id="a_node3"><a xlink:href="$_yenot_8cpp.html" xlink:title="Описание ">
<polygon fill="white" stroke="black" points="74.5,-0.5 74.5,-19.5 135.5,-19.5 135.5,-0.5 74.5,-0.5"/>
<text text-anchor="middle" x="105" y="-7.5" font-family="Helvetica,sans-Serif" font-size="10.00">Yenot.cpp</text>
</a>
</g>
</g>
<!-- Node104&#45;&gt;Node106 -->
<g id="edge2" class="edge"><title>Node104&#45;&gt;Node106</title>
<path fill="none" stroke="midnightblue" d="M105,-45.8045C105,-36.9102 105,-26.7798 105,-19.7511"/>
<polygon fill="midnightblue" stroke="midnightblue" points="101.5,-46.083 105,-56.083 108.5,-46.083 101.5,-46.083"/>
</g>
<!-- Node107 -->
<g id="node4" class="node"><title>Node107</title>
<g id="a_node4"><a xlink:href="$_logger_8cpp.html" xlink:title="Модуль логирования. Поддерживает логирование со временем и логирование с различными уровнями...">
<polygon fill="white" stroke="black" points="153.5,-0.5 153.5,-19.5 218.5,-19.5 218.5,-0.5 153.5,-0.5"/>
<text text-anchor="middle" x="186" y="-7.5" font-family="Helvetica,sans-Serif" font-size="10.00">Logger.cpp</text>
</a>
</g>
</g>
<!-- Node104&#45;&gt;Node107 -->
<g id="edge3" class="edge"><title>Node104&#45;&gt;Node107</title>
<path fill="none" stroke="midnightblue" d="M126.567,-50.6221C141.364,-40.7574 160.512,-27.9919 173.018,-19.6545"/>
<polygon fill="midnightblue" stroke="midnightblue" points="124.393,-47.8647 118.014,-56.324 128.276,-53.6891 124.393,-47.8647"/>
</g>
</g>
</svg>
