<?xml version="1.0" encoding="UTF-8" standalone="no"?>
<!DOCTYPE svg PUBLIC "-//W3C//DTD SVG 1.1//EN"
 "http://www.w3.org/Graphics/SVG/1.1/DTD/svg11.dtd">
<!-- Generated by graphviz version 2.38.0 (20140413.2041)
 -->
<!-- Title: Yenot.cpp Pages: 1 -->
<svg width="276pt" height="140pt"
 viewBox="0.00 0.00 275.50 140.00" xmlns="http://www.w3.org/2000/svg" xmlns:xlink="http://www.w3.org/1999/xlink">
<g id="graph0" class="graph" transform="scale(1 1) rotate(0) translate(4 136)">
<title>Yenot.cpp</title>
<polygon fill="white" stroke="none" points="-4,4 -4,-136 271.5,-136 271.5,4 -4,4"/>
<!-- Node59 -->
<g id="node1" class="node"><title>Node59</title>
<polygon fill="#bfbfbf" stroke="black" points="107,-112.5 107,-131.5 168,-131.5 168,-112.5 107,-112.5"/>
<text text-anchor="middle" x="137.5" y="-119.5" font-family="Helvetica,sans-Serif" font-size="10.00">Yenot.cpp</text>
</g>
<!-- Node60 -->
<g id="node2" class="node"><title>Node60</title>
<g id="a_node2"><a xlink:href="$_yenot_8h.html" xlink:title="Заголовочный файл с пространством имён, которое хранит в себе константы. ">
<polygon fill="white" stroke="black" points="0,-56.5 0,-75.5 81,-75.5 81,-56.5 0,-56.5"/>
<text text-anchor="middle" x="40.5" y="-63.5" font-family="Helvetica,sans-Serif" font-size="10.00">..\core\Yenot.h</text>
</a>
</g>
</g>
<!-- Node59&#45;&gt;Node60 -->
<g id="edge1" class="edge"><title>Node59&#45;&gt;Node60</title>
<path fill="none" stroke="midnightblue" d="M121.915,-112.324C106.501,-103.743 82.6878,-90.486 64.7903,-80.5224"/>
<polygon fill="midnightblue" stroke="midnightblue" points="66.4858,-77.4606 56.0461,-75.6545 63.0809,-83.5767 66.4858,-77.4606"/>
</g>
<!-- Node61 -->
<g id="node3" class="node"><title>Node61</title>
<g id="a_node3"><a xlink:href="$_core_8h.html" xlink:title="Ядро проекта. Содержит все главные и вспомогательные функции для определения марки автомобиля ...">
<polygon fill="white" stroke="black" points="99.5,-56.5 99.5,-75.5 175.5,-75.5 175.5,-56.5 99.5,-56.5"/>
<text text-anchor="middle" x="137.5" y="-63.5" font-family="Helvetica,sans-Serif" font-size="10.00">..\core\Core.h</text>
</a>
</g>
</g>
<!-- Node59&#45;&gt;Node61 -->
<g id="edge2" class="edge"><title>Node59&#45;&gt;Node61</title>
<path fill="none" stroke="midnightblue" d="M137.5,-112.083C137.5,-105.006 137.5,-94.8611 137.5,-85.9865"/>
<polygon fill="midnightblue" stroke="midnightblue" points="141,-85.751 137.5,-75.7511 134,-85.7511 141,-85.751"/>
</g>
<!-- Node63 -->
<g id="node5" class="node"><title>Node63</title>
<g id="a_node5"><a xlink:href="$_logger_8h.html" xlink:title="Заголовочный файл модуля логирования ">
<polygon fill="white" stroke="black" points="193.5,-56.5 193.5,-75.5 267.5,-75.5 267.5,-56.5 193.5,-56.5"/>
<text text-anchor="middle" x="230.5" y="-63.5" font-family="Helvetica,sans-Serif" font-size="10.00">..\io\Logger.h</text>
</a>
</g>
</g>
<!-- Node59&#45;&gt;Node63 -->
<g id="edge4" class="edge"><title>Node59&#45;&gt;Node63</title>
<path fill="none" stroke="midnightblue" d="M152.442,-112.324C167.085,-103.822 189.634,-90.7288 206.738,-80.7975"/>
<polygon fill="midnightblue" stroke="midnightblue" points="208.705,-83.7027 215.595,-75.6545 205.19,-77.6491 208.705,-83.7027"/>
</g>
<!-- Node62 -->
<g id="node4" class="node"><title>Node62</title>
<polygon fill="white" stroke="#bfbfbf" points="85.5,-0.5 85.5,-19.5 189.5,-19.5 189.5,-0.5 85.5,-0.5"/>
<text text-anchor="middle" x="137.5" y="-7.5" font-family="Helvetica,sans-Serif" font-size="10.00">opencv2/opencv.hpp</text>
</g>
<!-- Node61&#45;&gt;Node62 -->
<g id="edge3" class="edge"><title>Node61&#45;&gt;Node62</title>
<path fill="none" stroke="midnightblue" d="M137.5,-56.083C137.5,-49.0059 137.5,-38.8611 137.5,-29.9865"/>
<polygon fill="midnightblue" stroke="midnightblue" points="141,-29.751 137.5,-19.7511 134,-29.7511 141,-29.751"/>
</g>
</g>
</svg>
