<?xml version="1.0" encoding="UTF-8" standalone="no"?>
<!DOCTYPE svg PUBLIC "-//W3C//DTD SVG 1.1//EN"
 "http://www.w3.org/Graphics/SVG/1.1/DTD/svg11.dtd">
<!-- Generated by graphviz version 2.38.0 (20140413.2041)
 -->
<!-- Title: Yenot.cpp Pages: 1 -->
<svg width="274pt" height="140pt"
 viewBox="0.00 0.00 273.50 140.00" xmlns="http://www.w3.org/2000/svg" xmlns:xlink="http://www.w3.org/1999/xlink">
<g id="graph0" class="graph" transform="scale(1 1) rotate(0) translate(4 136)">
<title>Yenot.cpp</title>
<polygon fill="white" stroke="none" points="-4,4 -4,-136 269.5,-136 269.5,4 -4,4"/>
<!-- Node154 -->
<g id="node1" class="node"><title>Node154</title>
<polygon fill="#bfbfbf" stroke="black" points="94.5,-112.5 94.5,-131.5 155.5,-131.5 155.5,-112.5 94.5,-112.5"/>
<text text-anchor="middle" x="125" y="-119.5" font-family="Helvetica,sans-Serif" font-size="10.00">Yenot.cpp</text>
</g>
<!-- Node155 -->
<g id="node2" class="node"><title>Node155</title>
<g id="a_node2"><a xlink:href="$_yenot_8h.html" xlink:title="Заголовочный файл с пространством имён, которое хранит в себе константы. ">
<polygon fill="white" stroke="black" points="0,-56.5 0,-75.5 50,-75.5 50,-56.5 0,-56.5"/>
<text text-anchor="middle" x="25" y="-63.5" font-family="Helvetica,sans-Serif" font-size="10.00">Yenot.h</text>
</a>
</g>
</g>
<!-- Node154&#45;&gt;Node155 -->
<g id="edge1" class="edge"><title>Node154&#45;&gt;Node155</title>
<path fill="none" stroke="midnightblue" d="M108.933,-112.324C93.0422,-103.743 68.4926,-90.486 50.0415,-80.5224"/>
<polygon fill="midnightblue" stroke="midnightblue" points="51.489,-77.3264 41.0269,-75.6545 48.1629,-83.4857 51.489,-77.3264"/>
</g>
<!-- Node156 -->
<g id="node3" class="node"><title>Node156</title>
<g id="a_node3"><a xlink:href="$_core_8h.html" xlink:title="Ядро проекта. Содержит все главные и вспомогательные функции для определения марки автомобиля ...">
<polygon fill="white" stroke="black" points="68.5,-56.5 68.5,-75.5 113.5,-75.5 113.5,-56.5 68.5,-56.5"/>
<text text-anchor="middle" x="91" y="-63.5" font-family="Helvetica,sans-Serif" font-size="10.00">Core.h</text>
</a>
</g>
</g>
<!-- Node154&#45;&gt;Node156 -->
<g id="edge2" class="edge"><title>Node154&#45;&gt;Node156</title>
<path fill="none" stroke="midnightblue" d="M119.386,-112.083C114.633,-104.534 107.682,-93.4948 101.848,-84.2298"/>
<polygon fill="midnightblue" stroke="midnightblue" points="104.8,-82.3486 96.5099,-75.7511 98.8763,-86.0783 104.8,-82.3486"/>
</g>
<!-- Node158 -->
<g id="node5" class="node"><title>Node158</title>
<g id="a_node5"><a xlink:href="$_logger_8h.html" xlink:title="Заголовочный файл модуля логирования ">
<polygon fill="white" stroke="black" points="132,-56.5 132,-75.5 186,-75.5 186,-56.5 132,-56.5"/>
<text text-anchor="middle" x="159" y="-63.5" font-family="Helvetica,sans-Serif" font-size="10.00">Logger.h</text>
</a>
</g>
</g>
<!-- Node154&#45;&gt;Node158 -->
<g id="edge4" class="edge"><title>Node154&#45;&gt;Node158</title>
<path fill="none" stroke="midnightblue" d="M130.614,-112.083C135.367,-104.534 142.318,-93.4948 148.152,-84.2298"/>
<polygon fill="midnightblue" stroke="midnightblue" points="151.124,-86.0783 153.49,-75.7511 145.2,-82.3486 151.124,-86.0783"/>
</g>
<!-- Node159 -->
<g id="node6" class="node"><title>Node159</title>
<g id="a_node6"><a xlink:href="$_settings_8h.html" xlink:title="Заголовочный файл модуля работы с ini файлами ">
<polygon fill="white" stroke="black" points="204.5,-56.5 204.5,-75.5 265.5,-75.5 265.5,-56.5 204.5,-56.5"/>
<text text-anchor="middle" x="235" y="-63.5" font-family="Helvetica,sans-Serif" font-size="10.00">Settings.h</text>
</a>
</g>
</g>
<!-- Node154&#45;&gt;Node159 -->
<g id="edge5" class="edge"><title>Node154&#45;&gt;Node159</title>
<path fill="none" stroke="midnightblue" d="M142.673,-112.324C160.394,-103.625 187.903,-90.1202 208.288,-80.113"/>
<polygon fill="midnightblue" stroke="midnightblue" points="209.936,-83.2031 217.37,-75.6545 206.851,-76.9195 209.936,-83.2031"/>
</g>
<!-- Node157 -->
<g id="node4" class="node"><title>Node157</title>
<polygon fill="white" stroke="#bfbfbf" points="39,-0.5 39,-19.5 143,-19.5 143,-0.5 39,-0.5"/>
<text text-anchor="middle" x="91" y="-7.5" font-family="Helvetica,sans-Serif" font-size="10.00">opencv2/opencv.hpp</text>
</g>
<!-- Node156&#45;&gt;Node157 -->
<g id="edge3" class="edge"><title>Node156&#45;&gt;Node157</title>
<path fill="none" stroke="midnightblue" d="M91,-56.083C91,-49.0059 91,-38.8611 91,-29.9865"/>
<polygon fill="midnightblue" stroke="midnightblue" points="94.5001,-29.751 91,-19.7511 87.5001,-29.7511 94.5001,-29.751"/>
</g>
<!-- Node160 -->
<g id="node7" class="node"><title>Node160</title>
<polygon fill="white" stroke="#bfbfbf" points="214.5,-0.5 214.5,-19.5 255.5,-19.5 255.5,-0.5 214.5,-0.5"/>
<text text-anchor="middle" x="235" y="-7.5" font-family="Helvetica,sans-Serif" font-size="10.00">string</text>
</g>
<!-- Node159&#45;&gt;Node160 -->
<g id="edge6" class="edge"><title>Node159&#45;&gt;Node160</title>
<path fill="none" stroke="midnightblue" d="M235,-56.083C235,-49.0059 235,-38.8611 235,-29.9865"/>
<polygon fill="midnightblue" stroke="midnightblue" points="238.5,-29.751 235,-19.7511 231.5,-29.7511 238.5,-29.751"/>
</g>
</g>
</svg>
