<?xml version="1.0" encoding="UTF-8" standalone="no"?>
<!DOCTYPE svg PUBLIC "-//W3C//DTD SVG 1.1//EN"
 "http://www.w3.org/Graphics/SVG/1.1/DTD/svg11.dtd">
<!-- Generated by graphviz version 2.38.0 (20140413.2041)
 -->
<!-- Title: Yenot Pages: 1 -->
<svg width="157pt" height="180pt"
 viewBox="0.00 0.00 157.00 180.00" xmlns="http://www.w3.org/2000/svg" xmlns:xlink="http://www.w3.org/1999/xlink">
<g id="graph0" class="graph" transform="scale(1 1) rotate(0) translate(4 176)">
<title>Yenot</title>
<polygon fill="white" stroke="none" points="-4,4 -4,-176 153,-176 153,4 -4,4"/>
<!-- Node17 -->
<g id="node1" class="node"><title>Node17</title>
<g id="a_node1"><a xlink:href="$group__settingscpp.html" xlink:title="Settings.cpp">
<polygon fill="white" stroke="black" points="78,-152.5 78,-171.5 149,-171.5 149,-152.5 78,-152.5"/>
<text text-anchor="middle" x="113.5" y="-159.5" font-family="Helvetica,sans-Serif" font-size="10.00">Settings.cpp</text>
</a>
</g>
</g>
<!-- Node16 -->
<g id="node2" class="node"><title>Node16</title>
<g id="a_node2"><a xlink:href="$group__loggerh.html" xlink:title="Logger.h">
<polygon fill="white" stroke="black" points="86.5,-114.5 86.5,-133.5 140.5,-133.5 140.5,-114.5 86.5,-114.5"/>
<text text-anchor="middle" x="113.5" y="-121.5" font-family="Helvetica,sans-Serif" font-size="10.00">Logger.h</text>
</a>
</g>
</g>
<!-- Node19 -->
<g id="node3" class="node"><title>Node19</title>
<g id="a_node3"><a xlink:href="$group__yenoth.html" xlink:title="Yenot.h">
<polygon fill="white" stroke="black" points="88.5,-76.5 88.5,-95.5 138.5,-95.5 138.5,-76.5 88.5,-76.5"/>
<text text-anchor="middle" x="113.5" y="-83.5" font-family="Helvetica,sans-Serif" font-size="10.00">Yenot.h</text>
</a>
</g>
</g>
<!-- Node18 -->
<g id="node4" class="node"><title>Node18</title>
<g id="a_node4"><a xlink:href="$group__settingsh.html" xlink:title="Settings.h">
<polygon fill="white" stroke="black" points="83,-38.5 83,-57.5 144,-57.5 144,-38.5 83,-38.5"/>
<text text-anchor="middle" x="113.5" y="-45.5" font-family="Helvetica,sans-Serif" font-size="10.00">Settings.h</text>
</a>
</g>
</g>
<!-- Node15 -->
<g id="node5" class="node"><title>Node15</title>
<g id="a_node5"><a xlink:href="$group__loggercpp.html" xlink:title="Logger.cpp">
<polygon fill="white" stroke="black" points="81,-0.5 81,-19.5 146,-19.5 146,-0.5 81,-0.5"/>
<text text-anchor="middle" x="113.5" y="-7.5" font-family="Helvetica,sans-Serif" font-size="10.00">Logger.cpp</text>
</a>
</g>
</g>
<!-- Node14 -->
<g id="node6" class="node"><title>Node14</title>
<polygon fill="#bfbfbf" stroke="black" points="0,-76.5 0,-95.5 42,-95.5 42,-76.5 0,-76.5"/>
<text text-anchor="middle" x="21" y="-83.5" font-family="Helvetica,sans-Serif" font-size="10.00">Yenot</text>
</g>
<!-- Node14&#45;&gt;Node17 -->
<g id="edge3" class="edge"><title>Node14&#45;&gt;Node17</title>
<path fill="none" stroke="black" d="M36.5992,-103.34C47.2823,-115.375 62.5526,-131.285 78,-143 82.5766,-146.471 87.8643,-149.709 92.9037,-152.495"/>
<polygon fill="black" stroke="black" points="39.1888,-100.984 29.9902,-95.7265 33.9026,-105.573 39.1888,-100.984"/>
</g>
<!-- Node14&#45;&gt;Node16 -->
<g id="edge2" class="edge"><title>Node14&#45;&gt;Node16</title>
<path fill="none" stroke="black" d="M51.5329,-98.4006C63.8961,-103.592 78.0466,-109.533 89.6009,-114.385"/>
<polygon fill="black" stroke="black" points="52.6601,-95.0779 42.0849,-94.4334 49.95,-101.532 52.6601,-95.0779"/>
</g>
<!-- Node14&#45;&gt;Node19 -->
<g id="edge5" class="edge"><title>Node14&#45;&gt;Node19</title>
<path fill="none" stroke="black" d="M52.3105,-86C64.0195,-86 77.2319,-86 88.2885,-86"/>
<polygon fill="black" stroke="black" points="52.0849,-82.5001 42.0849,-86 52.0848,-89.5001 52.0849,-82.5001"/>
</g>
<!-- Node14&#45;&gt;Node18 -->
<g id="edge4" class="edge"><title>Node14&#45;&gt;Node18</title>
<path fill="none" stroke="black" d="M51.5329,-73.5994C63.8961,-68.4083 78.0466,-62.4666 89.6009,-57.6151"/>
<polygon fill="black" stroke="black" points="49.95,-70.468 42.0849,-77.5666 52.6601,-76.9221 49.95,-70.468"/>
</g>
<!-- Node14&#45;&gt;Node15 -->
<g id="edge1" class="edge"><title>Node14&#45;&gt;Node15</title>
<path fill="none" stroke="black" d="M36.5992,-68.6602C47.2823,-56.6255 62.5526,-40.7146 78,-29 82.5766,-25.5293 87.8643,-22.2906 92.9037,-19.5053"/>
<polygon fill="black" stroke="black" points="33.9026,-66.4274 29.9902,-76.2735 39.1888,-71.0163 33.9026,-66.4274"/>
</g>
</g>
</svg>
