<?xml version="1.0" encoding="UTF-8" standalone="no"?>
<!DOCTYPE svg PUBLIC "-//W3C//DTD SVG 1.1//EN"
 "http://www.w3.org/Graphics/SVG/1.1/DTD/svg11.dtd">
<!-- Generated by graphviz version 2.38.0 (20140413.2041)
 -->
<!-- Title: Сервер Pages: 1 -->
<svg width="161pt" height="66pt"
 viewBox="0.00 0.00 161.00 66.00" xmlns="http://www.w3.org/2000/svg" xmlns:xlink="http://www.w3.org/1999/xlink">
<g id="graph0" class="graph" transform="scale(1 1) rotate(0) translate(4 62)">
<title>Сервер</title>
<polygon fill="white" stroke="none" points="-4,4 -4,-62 157,-62 157,4 -4,4"/>
<!-- Node26 -->
<g id="node1" class="node"><title>Node26</title>
<g id="a_node1"><a xlink:href="$group__serveryenotserverh.html" xlink:title="YenotServer.h">
<polygon fill="white" stroke="black" points="70.5,-38.5 70.5,-57.5 147.5,-57.5 147.5,-38.5 70.5,-38.5"/>
<text text-anchor="middle" x="109" y="-45.5" font-family="Helvetica,sans-Serif" font-size="10.00">YenotServer.h</text>
</a>
</g>
</g>
<!-- Node25 -->
<g id="node2" class="node"><title>Node25</title>
<g id="a_node2"><a xlink:href="$group__serveryenotservercpp.html" xlink:title="YenotServer.cpp">
<polygon fill="white" stroke="black" points="65,-0.5 65,-19.5 153,-19.5 153,-0.5 65,-0.5"/>
<text text-anchor="middle" x="109" y="-7.5" font-family="Helvetica,sans-Serif" font-size="10.00">YenotServer.cpp</text>
</a>
</g>
</g>
<!-- Node24 -->
<g id="node3" class="node"><title>Node24</title>
<polygon fill="#bfbfbf" stroke="black" points="0,-19.5 0,-38.5 29,-38.5 29,-19.5 0,-19.5"/>
<text text-anchor="middle" x="14.5" y="-26.5" font-family="Helvetica,sans-Serif" font-size="10.00"> </text>
</g>
<!-- Node24&#45;&gt;Node26 -->
<g id="edge2" class="edge"><title>Node24&#45;&gt;Node26</title>
<path fill="none" stroke="black" d="M39.0231,-33.8318C48.5185,-35.7822 59.7148,-38.082 70.2933,-40.2548"/>
<polygon fill="black" stroke="black" points="39.6484,-30.3872 29.1487,-31.8035 38.2399,-37.2441 39.6484,-30.3872"/>
</g>
<!-- Node24&#45;&gt;Node25 -->
<g id="edge1" class="edge"><title>Node24&#45;&gt;Node25</title>
<path fill="none" stroke="black" d="M39.0798,-24.1566C46.9889,-22.532 56.073,-20.6661 64.9953,-18.8334"/>
<polygon fill="black" stroke="black" points="38.2399,-20.7559 29.1487,-26.1965 39.6484,-27.6128 38.2399,-20.7559"/>
</g>
</g>
</svg>
