<?xml version="1.0" encoding="UTF-8" standalone="no"?>
<!DOCTYPE svg PUBLIC "-//W3C//DTD SVG 1.1//EN"
 "http://www.w3.org/Graphics/SVG/1.1/DTD/svg11.dtd">
<!-- Generated by graphviz version 2.38.0 (20140413.2041)
 -->
<!-- Title: Core Pages: 1 -->
<svg width="142pt" height="104pt"
 viewBox="0.00 0.00 142.00 104.00" xmlns="http://www.w3.org/2000/svg" xmlns:xlink="http://www.w3.org/1999/xlink">
<g id="graph0" class="graph" transform="scale(1 1) rotate(0) translate(4 100)">
<title>Core</title>
<polygon fill="white" stroke="none" points="-4,4 -4,-100 138,-100 138,4 -4,4"/>
<!-- Node24 -->
<g id="node1" class="node"><title>Node24</title>
<g id="a_node1"><a xlink:href="$group__coreh.html" xlink:title="Core.h">
<polygon fill="white" stroke="black" points="81,-76.5 81,-95.5 126,-95.5 126,-76.5 81,-76.5"/>
<text text-anchor="middle" x="103.5" y="-83.5" font-family="Helvetica,sans-Serif" font-size="10.00">Core.h</text>
</a>
</g>
</g>
<!-- Node25 -->
<g id="node2" class="node"><title>Node25</title>
<g id="a_node2"><a xlink:href="$group__yenotcpp.html" xlink:title="Yenot.cpp">
<polygon fill="white" stroke="black" points="73,-38.5 73,-57.5 134,-57.5 134,-38.5 73,-38.5"/>
<text text-anchor="middle" x="103.5" y="-45.5" font-family="Helvetica,sans-Serif" font-size="10.00">Yenot.cpp</text>
</a>
</g>
</g>
<!-- Node23 -->
<g id="node3" class="node"><title>Node23</title>
<g id="a_node3"><a xlink:href="$group__corecpp.html" xlink:title="Core.cpp">
<polygon fill="white" stroke="black" points="75.5,-0.5 75.5,-19.5 131.5,-19.5 131.5,-0.5 75.5,-0.5"/>
<text text-anchor="middle" x="103.5" y="-7.5" font-family="Helvetica,sans-Serif" font-size="10.00">Core.cpp</text>
</a>
</g>
</g>
<!-- Node22 -->
<g id="node4" class="node"><title>Node22</title>
<polygon fill="#bfbfbf" stroke="black" points="0,-38.5 0,-57.5 37,-57.5 37,-38.5 0,-38.5"/>
<text text-anchor="middle" x="18.5" y="-45.5" font-family="Helvetica,sans-Serif" font-size="10.00">Core</text>
</g>
<!-- Node22&#45;&gt;Node24 -->
<g id="edge2" class="edge"><title>Node22&#45;&gt;Node24</title>
<path fill="none" stroke="black" d="M46.2515,-60.2477C57.739,-65.507 70.9596,-71.5598 81.6962,-76.4754"/>
<polygon fill="black" stroke="black" points="47.6515,-57.0393 37.1022,-56.0588 44.7376,-63.404 47.6515,-57.0393"/>
</g>
<!-- Node22&#45;&gt;Node25 -->
<g id="edge3" class="edge"><title>Node22&#45;&gt;Node25</title>
<path fill="none" stroke="black" d="M47.3,-48C55.506,-48 64.5169,-48 72.8354,-48"/>
<polygon fill="black" stroke="black" points="47.1022,-44.5001 37.1022,-48 47.1021,-51.5001 47.1022,-44.5001"/>
</g>
<!-- Node22&#45;&gt;Node23 -->
<g id="edge1" class="edge"><title>Node22&#45;&gt;Node23</title>
<path fill="none" stroke="black" d="M46.2515,-35.7523C57.739,-30.493 70.9596,-24.4402 81.6962,-19.5246"/>
<polygon fill="black" stroke="black" points="44.7376,-32.596 37.1022,-39.9412 47.6515,-38.9607 44.7376,-32.596"/>
</g>
</g>
</svg>
