<?xml version="1.0" encoding="UTF-8" standalone="no"?>
<!DOCTYPE svg PUBLIC "-//W3C//DTD SVG 1.1//EN"
 "http://www.w3.org/Graphics/SVG/1.1/DTD/svg11.dtd">
<!-- Generated by graphviz version 2.38.0 (20140413.2041)
 -->
<!-- Title: Settings.cpp Pages: 1 -->
<svg width="427pt" height="140pt"
 viewBox="0.00 0.00 427.00 140.00" xmlns="http://www.w3.org/2000/svg" xmlns:xlink="http://www.w3.org/1999/xlink">
<g id="graph0" class="graph" transform="scale(1 1) rotate(0) translate(4 136)">
<title>Settings.cpp</title>
<polygon fill="white" stroke="none" points="-4,4 -4,-136 423,-136 423,4 -4,4"/>
<!-- Node125 -->
<g id="node1" class="node"><title>Node125</title>
<polygon fill="#bfbfbf" stroke="black" points="173,-112.5 173,-131.5 244,-131.5 244,-112.5 173,-112.5"/>
<text text-anchor="middle" x="208.5" y="-119.5" font-family="Helvetica,sans-Serif" font-size="10.00">Settings.cpp</text>
</g>
<!-- Node126 -->
<g id="node2" class="node"><title>Node126</title>
<polygon fill="white" stroke="#bfbfbf" points="0,-56.5 0,-75.5 65,-75.5 65,-56.5 0,-56.5"/>
<text text-anchor="middle" x="32.5" y="-63.5" font-family="Helvetica,sans-Serif" font-size="10.00">Windows.h</text>
</g>
<!-- Node125&#45;&gt;Node126 -->
<g id="edge1" class="edge"><title>Node125&#45;&gt;Node126</title>
<path fill="none" stroke="midnightblue" d="M180.612,-112.444C150.746,-103.28 103.185,-88.6876 70.044,-78.5192"/>
<polygon fill="midnightblue" stroke="midnightblue" points="70.844,-75.1037 60.2572,-75.5164 68.7907,-81.7958 70.844,-75.1037"/>
</g>
<!-- Node127 -->
<g id="node3" class="node"><title>Node127</title>
<polygon fill="white" stroke="#bfbfbf" points="83,-56.5 83,-75.5 132,-75.5 132,-56.5 83,-56.5"/>
<text text-anchor="middle" x="107.5" y="-63.5" font-family="Helvetica,sans-Serif" font-size="10.00">direct.h</text>
</g>
<!-- Node125&#45;&gt;Node127 -->
<g id="edge2" class="edge"><title>Node125&#45;&gt;Node127</title>
<path fill="none" stroke="midnightblue" d="M192.273,-112.324C176.149,-103.703 151.2,-90.3643 132.536,-80.3855"/>
<polygon fill="midnightblue" stroke="midnightblue" points="134.156,-77.283 123.687,-75.6545 130.856,-83.456 134.156,-77.283"/>
</g>
<!-- Node128 -->
<g id="node4" class="node"><title>Node128</title>
<polygon fill="white" stroke="#bfbfbf" points="150,-56.5 150,-75.5 199,-75.5 199,-56.5 150,-56.5"/>
<text text-anchor="middle" x="174.5" y="-63.5" font-family="Helvetica,sans-Serif" font-size="10.00">fstream</text>
</g>
<!-- Node125&#45;&gt;Node128 -->
<g id="edge3" class="edge"><title>Node125&#45;&gt;Node128</title>
<path fill="none" stroke="midnightblue" d="M202.886,-112.083C198.133,-104.534 191.182,-93.4948 185.348,-84.2298"/>
<polygon fill="midnightblue" stroke="midnightblue" points="188.3,-82.3486 180.01,-75.7511 182.376,-86.0783 188.3,-82.3486"/>
</g>
<!-- Node129 -->
<g id="node5" class="node"><title>Node129</title>
<g id="a_node5"><a xlink:href="$_yenot_8h.html" xlink:title="Заголовочный файл с пространством имён, которое хранит в себе константы. ">
<polygon fill="white" stroke="black" points="217.5,-56.5 217.5,-75.5 267.5,-75.5 267.5,-56.5 217.5,-56.5"/>
<text text-anchor="middle" x="242.5" y="-63.5" font-family="Helvetica,sans-Serif" font-size="10.00">Yenot.h</text>
</a>
</g>
</g>
<!-- Node125&#45;&gt;Node129 -->
<g id="edge4" class="edge"><title>Node125&#45;&gt;Node129</title>
<path fill="none" stroke="midnightblue" d="M214.114,-112.083C218.867,-104.534 225.818,-93.4948 231.652,-84.2298"/>
<polygon fill="midnightblue" stroke="midnightblue" points="234.624,-86.0783 236.99,-75.7511 228.7,-82.3486 234.624,-86.0783"/>
</g>
<!-- Node130 -->
<g id="node6" class="node"><title>Node130</title>
<g id="a_node6"><a xlink:href="$_logger_8h.html" xlink:title="Заголовочный файл модуля логирования ">
<polygon fill="white" stroke="black" points="285.5,-56.5 285.5,-75.5 339.5,-75.5 339.5,-56.5 285.5,-56.5"/>
<text text-anchor="middle" x="312.5" y="-63.5" font-family="Helvetica,sans-Serif" font-size="10.00">Logger.h</text>
</a>
</g>
</g>
<!-- Node125&#45;&gt;Node130 -->
<g id="edge5" class="edge"><title>Node125&#45;&gt;Node130</title>
<path fill="none" stroke="midnightblue" d="M225.209,-112.324C241.812,-103.703 267.502,-90.3643 286.72,-80.3855"/>
<polygon fill="midnightblue" stroke="midnightblue" points="288.57,-83.3689 295.832,-75.6545 285.344,-77.1565 288.57,-83.3689"/>
</g>
<!-- Node131 -->
<g id="node7" class="node"><title>Node131</title>
<g id="a_node7"><a xlink:href="$_settings_8h.html" xlink:title="Заголовочный файл модуля работы с ini файлами ">
<polygon fill="white" stroke="black" points="358,-56.5 358,-75.5 419,-75.5 419,-56.5 358,-56.5"/>
<text text-anchor="middle" x="388.5" y="-63.5" font-family="Helvetica,sans-Serif" font-size="10.00">Settings.h</text>
</a>
</g>
</g>
<!-- Node125&#45;&gt;Node131 -->
<g id="edge6" class="edge"><title>Node125&#45;&gt;Node131</title>
<path fill="none" stroke="midnightblue" d="M237.022,-112.444C267.566,-103.28 316.208,-88.6876 350.103,-78.5192"/>
<polygon fill="midnightblue" stroke="midnightblue" points="351.539,-81.7424 360.112,-75.5164 349.528,-75.0376 351.539,-81.7424"/>
</g>
<!-- Node132 -->
<g id="node8" class="node"><title>Node132</title>
<polygon fill="white" stroke="#bfbfbf" points="368,-0.5 368,-19.5 409,-19.5 409,-0.5 368,-0.5"/>
<text text-anchor="middle" x="388.5" y="-7.5" font-family="Helvetica,sans-Serif" font-size="10.00">string</text>
</g>
<!-- Node131&#45;&gt;Node132 -->
<g id="edge7" class="edge"><title>Node131&#45;&gt;Node132</title>
<path fill="none" stroke="midnightblue" d="M388.5,-56.083C388.5,-49.0059 388.5,-38.8611 388.5,-29.9865"/>
<polygon fill="midnightblue" stroke="midnightblue" points="392,-29.751 388.5,-19.7511 385,-29.7511 392,-29.751"/>
</g>
</g>
</svg>
