<?xml version="1.0" encoding="UTF-8" standalone="no"?>
<!DOCTYPE svg PUBLIC "-//W3C//DTD SVG 1.1//EN"
 "http://www.w3.org/Graphics/SVG/1.1/DTD/svg11.dtd">
<!-- Generated by graphviz version 2.38.0 (20140413.2041)
 -->
<!-- Title: Core.cpp Pages: 1 -->
<svg width="426pt" height="140pt"
 viewBox="0.00 0.00 425.50 140.00" xmlns="http://www.w3.org/2000/svg" xmlns:xlink="http://www.w3.org/1999/xlink">
<g id="graph0" class="graph" transform="scale(1 1) rotate(0) translate(4 136)">
<title>Core.cpp</title>
<polygon fill="white" stroke="none" points="-4,4 -4,-136 421.5,-136 421.5,4 -4,4"/>
<!-- Node0 -->
<g id="node1" class="node"><title>Node0</title>
<polygon fill="#bfbfbf" stroke="black" points="162.5,-112.5 162.5,-131.5 218.5,-131.5 218.5,-112.5 162.5,-112.5"/>
<text text-anchor="middle" x="190.5" y="-119.5" font-family="Helvetica,sans-Serif" font-size="10.00">Core.cpp</text>
</g>
<!-- Node1 -->
<g id="node2" class="node"><title>Node1</title>
<polygon fill="white" stroke="#bfbfbf" points="0,-56.5 0,-75.5 65,-75.5 65,-56.5 0,-56.5"/>
<text text-anchor="middle" x="32.5" y="-63.5" font-family="Helvetica,sans-Serif" font-size="10.00">Windows.h</text>
</g>
<!-- Node0&#45;&gt;Node1 -->
<g id="edge1" class="edge"><title>Node0&#45;&gt;Node1</title>
<path fill="none" stroke="midnightblue" d="M165.464,-112.444C138.884,-103.359 96.6912,-88.9388 66.9766,-78.7831"/>
<polygon fill="midnightblue" stroke="midnightblue" points="68.013,-75.4386 57.4184,-75.5164 65.7491,-82.0625 68.013,-75.4386"/>
</g>
<!-- Node2 -->
<g id="node3" class="node"><title>Node2</title>
<polygon fill="white" stroke="#bfbfbf" points="83,-56.5 83,-75.5 132,-75.5 132,-56.5 83,-56.5"/>
<text text-anchor="middle" x="107.5" y="-63.5" font-family="Helvetica,sans-Serif" font-size="10.00">direct.h</text>
</g>
<!-- Node0&#45;&gt;Node2 -->
<g id="edge2" class="edge"><title>Node0&#45;&gt;Node2</title>
<path fill="none" stroke="midnightblue" d="M177.165,-112.324C164.338,-103.979 144.715,-91.2122 129.56,-81.3524"/>
<polygon fill="midnightblue" stroke="midnightblue" points="131.093,-78.1742 120.802,-75.6545 127.276,-84.0417 131.093,-78.1742"/>
</g>
<!-- Node3 -->
<g id="node4" class="node"><title>Node3</title>
<g id="a_node4"><a xlink:href="_yenot_8h.html" target="_top" xlink:title="Заголовочный файл с пространством имён, которое хранит в себе константы. ">
<polygon fill="white" stroke="black" points="150,-56.5 150,-75.5 231,-75.5 231,-56.5 150,-56.5"/>
<text text-anchor="middle" x="190.5" y="-63.5" font-family="Helvetica,sans-Serif" font-size="10.00">..\core\Yenot.h</text>
</a>
</g>
</g>
<!-- Node0&#45;&gt;Node3 -->
<g id="edge3" class="edge"><title>Node0&#45;&gt;Node3</title>
<path fill="none" stroke="midnightblue" d="M190.5,-112.083C190.5,-105.006 190.5,-94.8611 190.5,-85.9865"/>
<polygon fill="midnightblue" stroke="midnightblue" points="194,-85.751 190.5,-75.7511 187,-85.7511 194,-85.751"/>
</g>
<!-- Node4 -->
<g id="node5" class="node"><title>Node4</title>
<g id="a_node5"><a xlink:href="_core_8h.html" target="_top" xlink:title="Ядро проекта. Содержит все главные и вспомогательные функции для определения марки автомобиля ...">
<polygon fill="white" stroke="black" points="249.5,-56.5 249.5,-75.5 325.5,-75.5 325.5,-56.5 249.5,-56.5"/>
<text text-anchor="middle" x="287.5" y="-63.5" font-family="Helvetica,sans-Serif" font-size="10.00">..\core\Core.h</text>
</a>
</g>
</g>
<!-- Node0&#45;&gt;Node4 -->
<g id="edge4" class="edge"><title>Node0&#45;&gt;Node4</title>
<path fill="none" stroke="midnightblue" d="M206.085,-112.324C221.499,-103.743 245.312,-90.486 263.21,-80.5224"/>
<polygon fill="midnightblue" stroke="midnightblue" points="264.919,-83.5767 271.954,-75.6545 261.514,-77.4606 264.919,-83.5767"/>
</g>
<!-- Node6 -->
<g id="node7" class="node"><title>Node6</title>
<g id="a_node7"><a xlink:href="_logger_8h.html" target="_top" xlink:title="Заголовочный файл модуля логирования ">
<polygon fill="white" stroke="black" points="343.5,-56.5 343.5,-75.5 417.5,-75.5 417.5,-56.5 343.5,-56.5"/>
<text text-anchor="middle" x="380.5" y="-63.5" font-family="Helvetica,sans-Serif" font-size="10.00">..\io\Logger.h</text>
</a>
</g>
</g>
<!-- Node0&#45;&gt;Node6 -->
<g id="edge6" class="edge"><title>Node0&#45;&gt;Node6</title>
<path fill="none" stroke="midnightblue" d="M218.535,-113.032C250.805,-103.861 304.048,-88.7286 340.623,-78.3334"/>
<polygon fill="midnightblue" stroke="midnightblue" points="341.804,-81.6365 350.466,-75.536 339.89,-74.9032 341.804,-81.6365"/>
</g>
<!-- Node5 -->
<g id="node6" class="node"><title>Node5</title>
<polygon fill="white" stroke="#bfbfbf" points="235.5,-0.5 235.5,-19.5 339.5,-19.5 339.5,-0.5 235.5,-0.5"/>
<text text-anchor="middle" x="287.5" y="-7.5" font-family="Helvetica,sans-Serif" font-size="10.00">opencv2/opencv.hpp</text>
</g>
<!-- Node4&#45;&gt;Node5 -->
<g id="edge5" class="edge"><title>Node4&#45;&gt;Node5</title>
<path fill="none" stroke="midnightblue" d="M287.5,-56.083C287.5,-49.0059 287.5,-38.8611 287.5,-29.9865"/>
<polygon fill="midnightblue" stroke="midnightblue" points="291,-29.751 287.5,-19.7511 284,-29.7511 291,-29.751"/>
</g>
</g>
</svg>
