<?xml version="1.0" encoding="UTF-8" standalone="no"?>
<!DOCTYPE svg PUBLIC "-//W3C//DTD SVG 1.1//EN"
 "http://www.w3.org/Graphics/SVG/1.1/DTD/svg11.dtd">
<!-- Generated by graphviz version 2.38.0 (20140413.2041)
 -->
<!-- Title: Core.h Pages: 1 -->
<svg width="308pt" height="85pt"
 viewBox="0.00 0.00 308.00 84.92" xmlns="http://www.w3.org/2000/svg" xmlns:xlink="http://www.w3.org/1999/xlink">
<g id="graph0" class="graph" transform="scale(1 1) rotate(0) translate(4 80.9221)">
<title>Core.h</title>
<polygon fill="white" stroke="none" points="-4,4 -4,-80.9221 304,-80.9221 304,4 -4,4"/>
<!-- Node2 -->
<g id="node1" class="node"><title>Node2</title>
<polygon fill="#bfbfbf" stroke="black" points="120.5,-57.4221 120.5,-76.4221 165.5,-76.4221 165.5,-57.4221 120.5,-57.4221"/>
<text text-anchor="middle" x="143" y="-64.4221" font-family="Helvetica,sans-Serif" font-size="10.00">Core.h</text>
</g>
<!-- Node3 -->
<g id="node2" class="node"><title>Node3</title>
<g id="a_node2"><a xlink:href="server_2src_2_core_8cpp.html" target="_top" xlink:title="Ядро проекта. Содержит все главные и вспомогательные функции для определения марки автомобиля ...">
<polygon fill="white" stroke="black" points="0,-1.42212 0,-20.4221 56,-20.4221 56,-1.42212 0,-1.42212"/>
<text text-anchor="middle" x="28" y="-8.42212" font-family="Helvetica,sans-Serif" font-size="10.00">Core.cpp</text>
</a>
</g>
</g>
<!-- Node2&#45;&gt;Node3 -->
<g id="edge1" class="edge"><title>Node2&#45;&gt;Node3</title>
<path fill="none" stroke="midnightblue" d="M115.519,-53.0181C94.0341,-42.9295 64.7781,-29.1918 46.1368,-20.4385"/>
<polygon fill="midnightblue" stroke="midnightblue" points="114.238,-56.2833 124.778,-57.3657 117.214,-49.9471 114.238,-56.2833"/>
</g>
<!-- Node4 -->
<g id="node3" class="node"><title>Node4</title>
<g id="a_node3"><a xlink:href="_yenot_8cpp.html" target="_top" xlink:title="Основной задачей нашего проекта является разработка самообучающегося приложения для выделения и распо...">
<polygon fill="white" stroke="black" points="74.5,-1.42212 74.5,-20.4221 135.5,-20.4221 135.5,-1.42212 74.5,-1.42212"/>
<text text-anchor="middle" x="105" y="-8.42212" font-family="Helvetica,sans-Serif" font-size="10.00">Yenot.cpp</text>
</a>
</g>
</g>
<!-- Node2&#45;&gt;Node4 -->
<g id="edge2" class="edge"><title>Node2&#45;&gt;Node4</title>
<path fill="none" stroke="midnightblue" d="M130.935,-48.7775C124.355,-39.427 116.489,-28.2486 111.158,-20.6732"/>
<polygon fill="midnightblue" stroke="midnightblue" points="128.108,-50.8413 136.725,-57.0051 133.832,-46.8128 128.108,-50.8413"/>
</g>
<!-- Node5 -->
<g id="node4" class="node"><title>Node5</title>
<g id="a_node4"><a xlink:href="tests_2src_2server_2_core_8cpp.html" target="_top" xlink:title="Core.cpp">
<polygon fill="white" stroke="black" points="154,-1.42212 154,-20.4221 210,-20.4221 210,-1.42212 154,-1.42212"/>
<text text-anchor="middle" x="182" y="-8.42212" font-family="Helvetica,sans-Serif" font-size="10.00">Core.cpp</text>
</a>
</g>
</g>
<!-- Node2&#45;&gt;Node5 -->
<g id="edge3" class="edge"><title>Node2&#45;&gt;Node5</title>
<path fill="none" stroke="midnightblue" d="M155.382,-48.7775C162.135,-39.427 170.209,-28.2486 175.68,-20.6732"/>
<polygon fill="midnightblue" stroke="midnightblue" points="152.458,-46.8491 149.44,-57.0051 158.132,-50.9475 152.458,-46.8491"/>
</g>
<!-- Node6 -->
<g id="node5" class="node"><title>Node6</title>
<g id="a_node5"><a xlink:href="_test_8cpp.html" target="_top" xlink:title="Модуль тестирования ">
<polygon fill="white" stroke="black" points="246,-1.42212 246,-20.4221 300,-20.4221 300,-1.42212 246,-1.42212"/>
<text text-anchor="middle" x="273" y="-8.42212" font-family="Helvetica,sans-Serif" font-size="10.00">Test.cpp</text>
</a>
</g>
</g>
<!-- Node2&#45;&gt;Node6 -->
<g id="edge5" class="edge"><title>Node2&#45;&gt;Node6</title>
<path fill="none" stroke="midnightblue" d="M173.085,-53.4251C197.457,-43.3017 231.14,-29.3101 252.497,-20.4385"/>
<polygon fill="midnightblue" stroke="midnightblue" points="171.491,-50.2973 163.599,-57.3657 174.177,-56.7618 171.491,-50.2973"/>
</g>
<!-- Node5&#45;&gt;Node5 -->
<g id="edge4" class="edge"><title>Node5&#45;&gt;Node5</title>
<path fill="none" stroke="midnightblue" d="M211.819,-21.4074C220.897,-21.1549 228,-17.6598 228,-10.9221 228,-1.84399 215.106,1.34753 201.859,-1.34753"/>
<polygon fill="midnightblue" stroke="midnightblue" points="212.136,-17.9218 201.859,-20.4967 211.498,-24.8927 212.136,-17.9218"/>
</g>
</g>
</svg>
