<?xml version="1.0" encoding="UTF-8" standalone="no"?>
<!DOCTYPE svg PUBLIC "-//W3C//DTD SVG 1.1//EN"
 "http://www.w3.org/Graphics/SVG/1.1/DTD/svg11.dtd">
<!-- Generated by graphviz version 2.38.0 (20140413.2041)
 -->
<!-- Title: Logger.h Pages: 1 -->
<svg width="353pt" height="84pt"
 viewBox="0.00 0.00 352.50 84.00" xmlns="http://www.w3.org/2000/svg" xmlns:xlink="http://www.w3.org/1999/xlink">
<g id="graph0" class="graph" transform="scale(1 1) rotate(0) translate(4 80)">
<title>Logger.h</title>
<polygon fill="white" stroke="none" points="-4,4 -4,-80 348.5,-80 348.5,4 -4,4"/>
<!-- Node1 -->
<g id="node1" class="node"><title>Node1</title>
<polygon fill="#bfbfbf" stroke="black" points="150,-56.5 150,-75.5 204,-75.5 204,-56.5 150,-56.5"/>
<text text-anchor="middle" x="177" y="-63.5" font-family="Helvetica,sans-Serif" font-size="10.00">Logger.h</text>
</g>
<!-- Node2 -->
<g id="node2" class="node"><title>Node2</title>
<g id="a_node2"><a xlink:href="_core_8cpp.html" target="_top" xlink:title="Ядро проекта. Содержит все главные и вспомогательные функции для определения марки автомобиля ...">
<polygon fill="white" stroke="black" points="0,-0.5 0,-19.5 56,-19.5 56,-0.5 0,-0.5"/>
<text text-anchor="middle" x="28" y="-7.5" font-family="Helvetica,sans-Serif" font-size="10.00">Core.cpp</text>
</a>
</g>
</g>
<!-- Node1&#45;&gt;Node2 -->
<g id="edge1" class="edge"><title>Node1&#45;&gt;Node2</title>
<path fill="none" stroke="midnightblue" d="M143.629,-52.9058C115.616,-42.7536 76.3044,-28.5063 51.499,-19.5164"/>
<polygon fill="midnightblue" stroke="midnightblue" points="142.796,-56.3267 153.391,-56.4435 145.181,-49.7456 142.796,-56.3267"/>
</g>
<!-- Node3 -->
<g id="node3" class="node"><title>Node3</title>
<g id="a_node3"><a xlink:href="_yenot_database_8cpp.html" target="_top" xlink:title="Удобное добавление trainhaar.xml файлов ">
<polygon fill="white" stroke="black" points="74,-0.5 74,-19.5 176,-19.5 176,-0.5 74,-0.5"/>
<text text-anchor="middle" x="125" y="-7.5" font-family="Helvetica,sans-Serif" font-size="10.00">YenotDatabase.cpp</text>
</a>
</g>
</g>
<!-- Node1&#45;&gt;Node3 -->
<g id="edge2" class="edge"><title>Node1&#45;&gt;Node3</title>
<path fill="none" stroke="midnightblue" d="M161.321,-48.7175C152.155,-39.1997 140.947,-27.5608 133.427,-19.7511"/>
<polygon fill="midnightblue" stroke="midnightblue" points="158.956,-51.3075 168.413,-56.083 163.998,-46.452 158.956,-51.3075"/>
</g>
<!-- Node4 -->
<g id="node4" class="node"><title>Node4</title>
<g id="a_node4"><a xlink:href="_settings_8cpp.html" target="_top" xlink:title="Модуль работы с ini файлами ">
<polygon fill="white" stroke="black" points="194.5,-0.5 194.5,-19.5 265.5,-19.5 265.5,-0.5 194.5,-0.5"/>
<text text-anchor="middle" x="230" y="-7.5" font-family="Helvetica,sans-Serif" font-size="10.00">Settings.cpp</text>
</a>
</g>
</g>
<!-- Node1&#45;&gt;Node4 -->
<g id="edge3" class="edge"><title>Node1&#45;&gt;Node4</title>
<path fill="none" stroke="midnightblue" d="M192.981,-48.7175C202.322,-39.1997 213.746,-27.5608 221.411,-19.7511"/>
<polygon fill="midnightblue" stroke="midnightblue" points="190.259,-46.4945 185.752,-56.083 195.254,-51.3978 190.259,-46.4945"/>
</g>
<!-- Node5 -->
<g id="node5" class="node"><title>Node5</title>
<g id="a_node5"><a xlink:href="_yenot_8cpp.html" target="_top" xlink:title="Основной задачей нашего проекта является разработка самообучающегося приложения для выделения и распо...">
<polygon fill="white" stroke="black" points="283.5,-0.5 283.5,-19.5 344.5,-19.5 344.5,-0.5 283.5,-0.5"/>
<text text-anchor="middle" x="314" y="-7.5" font-family="Helvetica,sans-Serif" font-size="10.00">Yenot.cpp</text>
</a>
</g>
</g>
<!-- Node1&#45;&gt;Node5 -->
<g id="edge4" class="edge"><title>Node1&#45;&gt;Node5</title>
<path fill="none" stroke="midnightblue" d="M208.023,-52.772C233.757,-42.6287 269.686,-28.4669 292.394,-19.5164"/>
<polygon fill="midnightblue" stroke="midnightblue" points="206.728,-49.5203 198.708,-56.4435 209.295,-56.0326 206.728,-49.5203"/>
</g>
</g>
</svg>
