<?xml version="1.0" encoding="UTF-8" standalone="no"?>
<!DOCTYPE svg PUBLIC "-//W3C//DTD SVG 1.1//EN"
 "http://www.w3.org/Graphics/SVG/1.1/DTD/svg11.dtd">
<!-- Generated by graphviz version 2.38.0 (20140413.2041)
 -->
<!-- Title: Logger.h Pages: 1 -->
<svg width="334pt" height="85pt"
 viewBox="0.00 0.00 333.50 84.92" xmlns="http://www.w3.org/2000/svg" xmlns:xlink="http://www.w3.org/1999/xlink">
<g id="graph0" class="graph" transform="scale(1 1) rotate(0) translate(4 80.9166)">
<title>Logger.h</title>
<polygon fill="white" stroke="none" points="-4,4 -4,-80.9166 329.5,-80.9166 329.5,4 -4,4"/>
<!-- Node1 -->
<g id="node1" class="node"><title>Node1</title>
<polygon fill="#bfbfbf" stroke="black" points="125,-57.4166 125,-76.4166 179,-76.4166 179,-57.4166 125,-57.4166"/>
<text text-anchor="middle" x="152" y="-64.4166" font-family="Helvetica,sans-Serif" font-size="10.00">Logger.h</text>
</g>
<!-- Node2 -->
<g id="node2" class="node"><title>Node2</title>
<g id="a_node2"><a xlink:href="server_2src_2_core_8cpp.html" target="_top" xlink:title="Ядро проекта. Содержит все главные и вспомогательные функции для определения марки автомобиля ...">
<polygon fill="white" stroke="black" points="0,-1.41656 0,-20.4166 56,-20.4166 56,-1.41656 0,-1.41656"/>
<text text-anchor="middle" x="28" y="-8.41656" font-family="Helvetica,sans-Serif" font-size="10.00">Core.cpp</text>
</a>
</g>
</g>
<!-- Node1&#45;&gt;Node2 -->
<g id="edge1" class="edge"><title>Node1&#45;&gt;Node2</title>
<path fill="none" stroke="midnightblue" d="M122.993,-53.2843C99.7714,-43.1718 67.8375,-29.2651 47.5562,-20.433"/>
<polygon fill="midnightblue" stroke="midnightblue" points="121.786,-56.5763 132.352,-57.3601 124.581,-50.1585 121.786,-56.5763"/>
</g>
<!-- Node3 -->
<g id="node3" class="node"><title>Node3</title>
<g id="a_node3"><a xlink:href="server_2src_2_settings_8cpp.html" target="_top" xlink:title="Модуль работы с ini файлами ">
<polygon fill="white" stroke="black" points="74.5,-1.41656 74.5,-20.4166 145.5,-20.4166 145.5,-1.41656 74.5,-1.41656"/>
<text text-anchor="middle" x="110" y="-8.41656" font-family="Helvetica,sans-Serif" font-size="10.00">Settings.cpp</text>
</a>
</g>
</g>
<!-- Node1&#45;&gt;Node3 -->
<g id="edge2" class="edge"><title>Node1&#45;&gt;Node3</title>
<path fill="none" stroke="midnightblue" d="M138.89,-49.0605C131.572,-39.6523 122.759,-28.3212 116.806,-20.6676"/>
<polygon fill="midnightblue" stroke="midnightblue" points="136.162,-51.2548 145.065,-56.9996 141.688,-46.9572 136.162,-51.2548"/>
</g>
<!-- Node4 -->
<g id="node4" class="node"><title>Node4</title>
<g id="a_node4"><a xlink:href="_yenot_8cpp.html" target="_top" xlink:title="Основной задачей нашего проекта является разработка самообучающегося приложения для выделения и распо...">
<polygon fill="white" stroke="black" points="163.5,-1.41656 163.5,-20.4166 224.5,-20.4166 224.5,-1.41656 163.5,-1.41656"/>
<text text-anchor="middle" x="194" y="-8.41656" font-family="Helvetica,sans-Serif" font-size="10.00">Yenot.cpp</text>
</a>
</g>
</g>
<!-- Node1&#45;&gt;Node4 -->
<g id="edge3" class="edge"><title>Node1&#45;&gt;Node4</title>
<path fill="none" stroke="midnightblue" d="M165.11,-49.0605C172.428,-39.6523 181.241,-28.3212 187.194,-20.6676"/>
<polygon fill="midnightblue" stroke="midnightblue" points="162.312,-46.9572 158.935,-56.9996 167.838,-51.2548 162.312,-46.9572"/>
</g>
<!-- Node5 -->
<g id="node5" class="node"><title>Node5</title>
<g id="a_node5"><a xlink:href="tests_2src_2server_2_logger_8cpp.html" target="_top" xlink:title="Logger.cpp">
<polygon fill="white" stroke="black" points="242.5,-1.41656 242.5,-20.4166 307.5,-20.4166 307.5,-1.41656 242.5,-1.41656"/>
<text text-anchor="middle" x="275" y="-8.41656" font-family="Helvetica,sans-Serif" font-size="10.00">Logger.cpp</text>
</a>
</g>
</g>
<!-- Node1&#45;&gt;Node5 -->
<g id="edge4" class="edge"><title>Node1&#45;&gt;Node5</title>
<path fill="none" stroke="midnightblue" d="M180.773,-53.2843C203.807,-43.1718 235.484,-29.2651 255.601,-20.433"/>
<polygon fill="midnightblue" stroke="midnightblue" points="179.239,-50.1354 171.49,-57.3601 182.053,-56.5449 179.239,-50.1354"/>
</g>
<!-- Node5&#45;&gt;Node5 -->
<g id="edge5" class="edge"><title>Node5&#45;&gt;Node5</title>
<path fill="none" stroke="midnightblue" d="M306.597,-21.4166C317.102,-21.4089 325.5,-17.9089 325.5,-10.9166 325.5,-1.78375 311.173,1.39133 296.538,-1.39133"/>
<polygon fill="midnightblue" stroke="midnightblue" points="306.829,-17.9227 296.538,-20.4418 306.154,-24.8901 306.829,-17.9227"/>
</g>
</g>
</svg>
