<?xml version="1.0" encoding="UTF-8" standalone="no"?>
<!DOCTYPE svg PUBLIC "-//W3C//DTD SVG 1.1//EN"
 "http://www.w3.org/Graphics/SVG/1.1/DTD/svg11.dtd">
<!-- Generated by graphviz version 2.38.0 (20140413.2041)
 -->
<!-- Title: Settings.cpp Pages: 1 -->
<svg width="520pt" height="140pt"
 viewBox="0.00 0.00 519.50 140.00" xmlns="http://www.w3.org/2000/svg" xmlns:xlink="http://www.w3.org/1999/xlink">
<g id="graph0" class="graph" transform="scale(1 1) rotate(0) translate(4 136)">
<title>Settings.cpp</title>
<polygon fill="white" stroke="none" points="-4,4 -4,-136 515.5,-136 515.5,4 -4,4"/>
<!-- Node0 -->
<g id="node1" class="node"><title>Node0</title>
<polygon fill="#bfbfbf" stroke="black" points="180,-112.5 180,-131.5 251,-131.5 251,-112.5 180,-112.5"/>
<text text-anchor="middle" x="215.5" y="-119.5" font-family="Helvetica,sans-Serif" font-size="10.00">Settings.cpp</text>
</g>
<!-- Node1 -->
<g id="node2" class="node"><title>Node1</title>
<polygon fill="white" stroke="#bfbfbf" points="0,-56.5 0,-75.5 65,-75.5 65,-56.5 0,-56.5"/>
<text text-anchor="middle" x="32.5" y="-63.5" font-family="Helvetica,sans-Serif" font-size="10.00">Windows.h</text>
</g>
<!-- Node0&#45;&gt;Node1 -->
<g id="edge1" class="edge"><title>Node0&#45;&gt;Node1</title>
<path fill="none" stroke="midnightblue" d="M186.503,-112.444C155.315,-103.241 105.57,-88.5617 71.0925,-78.3879"/>
<polygon fill="midnightblue" stroke="midnightblue" points="71.943,-74.9898 61.3612,-75.5164 69.9618,-81.7036 71.943,-74.9898"/>
</g>
<!-- Node2 -->
<g id="node3" class="node"><title>Node2</title>
<polygon fill="white" stroke="#bfbfbf" points="83,-56.5 83,-75.5 132,-75.5 132,-56.5 83,-56.5"/>
<text text-anchor="middle" x="107.5" y="-63.5" font-family="Helvetica,sans-Serif" font-size="10.00">direct.h</text>
</g>
<!-- Node0&#45;&gt;Node2 -->
<g id="edge2" class="edge"><title>Node0&#45;&gt;Node2</title>
<path fill="none" stroke="midnightblue" d="M198.148,-112.324C180.828,-103.664 153.985,-90.2424 133.998,-80.249"/>
<polygon fill="midnightblue" stroke="midnightblue" points="135.319,-76.9962 124.809,-75.6545 132.188,-83.2572 135.319,-76.9962"/>
</g>
<!-- Node3 -->
<g id="node4" class="node"><title>Node3</title>
<polygon fill="white" stroke="#bfbfbf" points="150,-56.5 150,-75.5 199,-75.5 199,-56.5 150,-56.5"/>
<text text-anchor="middle" x="174.5" y="-63.5" font-family="Helvetica,sans-Serif" font-size="10.00">fstream</text>
</g>
<!-- Node0&#45;&gt;Node3 -->
<g id="edge3" class="edge"><title>Node0&#45;&gt;Node3</title>
<path fill="none" stroke="midnightblue" d="M208.73,-112.083C202.938,-104.455 194.442,-93.2645 187.362,-83.9408"/>
<polygon fill="midnightblue" stroke="midnightblue" points="189.979,-81.5991 181.144,-75.7511 184.404,-85.8321 189.979,-81.5991"/>
</g>
<!-- Node4 -->
<g id="node5" class="node"><title>Node4</title>
<g id="a_node5"><a xlink:href="_yenot_8h.html" target="_top" xlink:title="Заголовочный файл с пространством имён, которое хранит в себе константы. ">
<polygon fill="white" stroke="black" points="217,-56.5 217,-75.5 298,-75.5 298,-56.5 217,-56.5"/>
<text text-anchor="middle" x="257.5" y="-63.5" font-family="Helvetica,sans-Serif" font-size="10.00">..\core\Yenot.h</text>
</a>
</g>
</g>
<!-- Node0&#45;&gt;Node4 -->
<g id="edge4" class="edge"><title>Node0&#45;&gt;Node4</title>
<path fill="none" stroke="midnightblue" d="M222.435,-112.083C228.429,-104.377 237.252,-93.0333 244.548,-83.6531"/>
<polygon fill="midnightblue" stroke="midnightblue" points="247.317,-85.7934 250.694,-75.7511 241.791,-81.4958 247.317,-85.7934"/>
</g>
<!-- Node5 -->
<g id="node6" class="node"><title>Node5</title>
<g id="a_node6"><a xlink:href="_logger_8h.html" target="_top" xlink:title="Заголовочный файл модуля логирования ">
<polygon fill="white" stroke="black" points="316,-56.5 316,-75.5 401,-75.5 401,-56.5 316,-56.5"/>
<text text-anchor="middle" x="358.5" y="-63.5" font-family="Helvetica,sans-Serif" font-size="10.00">..\core\Logger.h</text>
</a>
</g>
</g>
<!-- Node0&#45;&gt;Node5 -->
<g id="edge5" class="edge"><title>Node0&#45;&gt;Node5</title>
<path fill="none" stroke="midnightblue" d="M238.159,-112.444C261.902,-103.478 299.409,-89.314 326.238,-79.1827"/>
<polygon fill="midnightblue" stroke="midnightblue" points="327.829,-82.3235 335.947,-75.5164 325.356,-75.7749 327.829,-82.3235"/>
</g>
<!-- Node6 -->
<g id="node7" class="node"><title>Node6</title>
<g id="a_node7"><a xlink:href="_settings_8h.html" target="_top" xlink:title="Заголовочный файл модуля работы с ini файлами ">
<polygon fill="white" stroke="black" points="419.5,-56.5 419.5,-75.5 511.5,-75.5 511.5,-56.5 419.5,-56.5"/>
<text text-anchor="middle" x="465.5" y="-63.5" font-family="Helvetica,sans-Serif" font-size="10.00">..\core\Settings.h</text>
</a>
</g>
</g>
<!-- Node0&#45;&gt;Node6 -->
<g id="edge6" class="edge"><title>Node0&#45;&gt;Node6</title>
<path fill="none" stroke="midnightblue" d="M251.053,-113.32C294.221,-103.996 367.277,-88.2163 415.948,-77.7032"/>
<polygon fill="midnightblue" stroke="midnightblue" points="416.909,-81.0765 425.944,-75.544 415.431,-74.2343 416.909,-81.0765"/>
</g>
<!-- Node7 -->
<g id="node8" class="node"><title>Node7</title>
<polygon fill="white" stroke="#bfbfbf" points="445,-0.5 445,-19.5 486,-19.5 486,-0.5 445,-0.5"/>
<text text-anchor="middle" x="465.5" y="-7.5" font-family="Helvetica,sans-Serif" font-size="10.00">string</text>
</g>
<!-- Node6&#45;&gt;Node7 -->
<g id="edge7" class="edge"><title>Node6&#45;&gt;Node7</title>
<path fill="none" stroke="midnightblue" d="M465.5,-56.083C465.5,-49.0059 465.5,-38.8611 465.5,-29.9865"/>
<polygon fill="midnightblue" stroke="midnightblue" points="469,-29.751 465.5,-19.7511 462,-29.7511 469,-29.751"/>
</g>
</g>
</svg>
