<?xml version="1.0" encoding="UTF-8" standalone="no"?>
<!DOCTYPE svg PUBLIC "-//W3C//DTD SVG 1.1//EN"
 "http://www.w3.org/Graphics/SVG/1.1/DTD/svg11.dtd">
<!-- Generated by graphviz version 2.38.0 (20140413.2041)
 -->
<!-- Title: Settings.h Pages: 1 -->
<svg width="316pt" height="84pt"
 viewBox="0.00 0.00 315.50 84.00" xmlns="http://www.w3.org/2000/svg" xmlns:xlink="http://www.w3.org/1999/xlink">
<g id="graph0" class="graph" transform="scale(1 1) rotate(0) translate(4 80)">
<title>Settings.h</title>
<polygon fill="white" stroke="none" points="-4,4 -4,-80 311.5,-80 311.5,4 -4,4"/>
<!-- Node2 -->
<g id="node1" class="node"><title>Node2</title>
<polygon fill="#bfbfbf" stroke="black" points="119.5,-56.5 119.5,-75.5 180.5,-75.5 180.5,-56.5 119.5,-56.5"/>
<text text-anchor="middle" x="150" y="-63.5" font-family="Helvetica,sans-Serif" font-size="10.00">Settings.h</text>
</g>
<!-- Node3 -->
<g id="node2" class="node"><title>Node3</title>
<g id="a_node2"><a xlink:href="_core_8cpp.html" target="_top" xlink:title="Ядро проекта. Содержит все главные и вспомогательные функции для определения марки автомобиля ...">
<polygon fill="white" stroke="black" points="0,-0.5 0,-19.5 56,-19.5 56,-0.5 0,-0.5"/>
<text text-anchor="middle" x="28" y="-7.5" font-family="Helvetica,sans-Serif" font-size="10.00">Core.cpp</text>
</a>
</g>
</g>
<!-- Node2&#45;&gt;Node3 -->
<g id="edge1" class="edge"><title>Node2&#45;&gt;Node3</title>
<path fill="none" stroke="midnightblue" d="M121.461,-52.3678C98.6137,-42.2553 67.1949,-28.3486 47.2408,-19.5164"/>
<polygon fill="midnightblue" stroke="midnightblue" points="120.108,-55.5965 130.669,-56.4435 122.941,-49.1955 120.108,-55.5965"/>
</g>
<!-- Node4 -->
<g id="node3" class="node"><title>Node4</title>
<g id="a_node3"><a xlink:href="_logger_8cpp.html" target="_top" xlink:title="Модуль логирования. Поддерживает логирование со временем и логирование с различными уровнями...">
<polygon fill="white" stroke="black" points="74.5,-0.5 74.5,-19.5 139.5,-19.5 139.5,-0.5 74.5,-0.5"/>
<text text-anchor="middle" x="107" y="-7.5" font-family="Helvetica,sans-Serif" font-size="10.00">Logger.cpp</text>
</a>
</g>
</g>
<!-- Node2&#45;&gt;Node4 -->
<g id="edge2" class="edge"><title>Node2&#45;&gt;Node4</title>
<path fill="none" stroke="midnightblue" d="M136.578,-48.144C129.086,-38.7357 120.063,-27.4046 113.968,-19.7511"/>
<polygon fill="midnightblue" stroke="midnightblue" points="133.932,-50.4404 142.899,-56.083 139.408,-46.0799 133.932,-50.4404"/>
</g>
<!-- Node5 -->
<g id="node4" class="node"><title>Node5</title>
<g id="a_node4"><a xlink:href="_settings_8cpp.html" target="_top" xlink:title="Модуль работы с ini файлами ">
<polygon fill="white" stroke="black" points="157.5,-0.5 157.5,-19.5 228.5,-19.5 228.5,-0.5 157.5,-0.5"/>
<text text-anchor="middle" x="193" y="-7.5" font-family="Helvetica,sans-Serif" font-size="10.00">Settings.cpp</text>
</a>
</g>
</g>
<!-- Node2&#45;&gt;Node5 -->
<g id="edge3" class="edge"><title>Node2&#45;&gt;Node5</title>
<path fill="none" stroke="midnightblue" d="M163.422,-48.144C170.914,-38.7357 179.937,-27.4046 186.032,-19.7511"/>
<polygon fill="midnightblue" stroke="midnightblue" points="160.592,-46.0799 157.101,-56.083 166.068,-50.4404 160.592,-46.0799"/>
</g>
<!-- Node6 -->
<g id="node5" class="node"><title>Node6</title>
<g id="a_node5"><a xlink:href="_yenot_8cpp.html" target="_top" xlink:title="Описание ">
<polygon fill="white" stroke="black" points="246.5,-0.5 246.5,-19.5 307.5,-19.5 307.5,-0.5 246.5,-0.5"/>
<text text-anchor="middle" x="277" y="-7.5" font-family="Helvetica,sans-Serif" font-size="10.00">Yenot.cpp</text>
</a>
</g>
</g>
<!-- Node2&#45;&gt;Node6 -->
<g id="edge4" class="edge"><title>Node2&#45;&gt;Node6</title>
<path fill="none" stroke="midnightblue" d="M179.391,-52.503C203.2,-42.3795 236.106,-28.388 256.971,-19.5164"/>
<polygon fill="midnightblue" stroke="midnightblue" points="177.957,-49.3096 170.124,-56.4435 180.696,-55.7515 177.957,-49.3096"/>
</g>
</g>
</svg>
