<?xml version="1.0" encoding="UTF-8" standalone="no"?>
<!DOCTYPE svg PUBLIC "-//W3C//DTD SVG 1.1//EN"
 "http://www.w3.org/Graphics/SVG/1.1/DTD/svg11.dtd">
<!-- Generated by graphviz version 2.38.0 (20140413.2041)
 -->
<!-- Title: Settings.h Pages: 1 -->
<svg width="423pt" height="85pt"
 viewBox="0.00 0.00 422.50 84.92" xmlns="http://www.w3.org/2000/svg" xmlns:xlink="http://www.w3.org/1999/xlink">
<g id="graph0" class="graph" transform="scale(1 1) rotate(0) translate(4 80.9166)">
<title>Settings.h</title>
<polygon fill="white" stroke="none" points="-4,4 -4,-80.9166 418.5,-80.9166 418.5,4 -4,4"/>
<!-- Node2 -->
<g id="node1" class="node"><title>Node2</title>
<polygon fill="#bfbfbf" stroke="black" points="162.5,-57.4166 162.5,-76.4166 223.5,-76.4166 223.5,-57.4166 162.5,-57.4166"/>
<text text-anchor="middle" x="193" y="-64.4166" font-family="Helvetica,sans-Serif" font-size="10.00">Settings.h</text>
</g>
<!-- Node3 -->
<g id="node2" class="node"><title>Node3</title>
<g id="a_node2"><a xlink:href="server_2src_2_core_8cpp.html" target="_top" xlink:title="Ядро проекта. Содержит все главные и вспомогательные функции для определения марки автомобиля ...">
<polygon fill="white" stroke="black" points="0,-1.41656 0,-20.4166 56,-20.4166 56,-1.41656 0,-1.41656"/>
<text text-anchor="middle" x="28" y="-8.41656" font-family="Helvetica,sans-Serif" font-size="10.00">Core.cpp</text>
</a>
</g>
</g>
<!-- Node2&#45;&gt;Node3 -->
<g id="edge1" class="edge"><title>Node2&#45;&gt;Node3</title>
<path fill="none" stroke="midnightblue" d="M157.264,-54.221C126.173,-44.046 81.8529,-29.5411 54.0224,-20.433"/>
<polygon fill="midnightblue" stroke="midnightblue" points="156.263,-57.576 166.855,-57.3601 158.44,-50.9233 156.263,-57.576"/>
</g>
<!-- Node4 -->
<g id="node3" class="node"><title>Node4</title>
<g id="a_node3"><a xlink:href="server_2src_2_logger_8cpp.html" target="_top" xlink:title="Модуль логирования. Поддерживает логирование со временем и логирование с различными уровнями...">
<polygon fill="white" stroke="black" points="74.5,-1.41656 74.5,-20.4166 139.5,-20.4166 139.5,-1.41656 74.5,-1.41656"/>
<text text-anchor="middle" x="107" y="-8.41656" font-family="Helvetica,sans-Serif" font-size="10.00">Logger.cpp</text>
</a>
</g>
</g>
<!-- Node2&#45;&gt;Node4 -->
<g id="edge2" class="edge"><title>Node2&#45;&gt;Node4</title>
<path fill="none" stroke="midnightblue" d="M170.545,-51.8171C154.776,-41.9152 134.186,-28.9871 120.783,-20.5711"/>
<polygon fill="midnightblue" stroke="midnightblue" points="168.852,-54.8869 179.183,-57.2405 172.575,-48.9587 168.852,-54.8869"/>
</g>
<!-- Node5 -->
<g id="node4" class="node"><title>Node5</title>
<g id="a_node4"><a xlink:href="server_2src_2_settings_8cpp.html" target="_top" xlink:title="Модуль работы с ini файлами ">
<polygon fill="white" stroke="black" points="157.5,-1.41656 157.5,-20.4166 228.5,-20.4166 228.5,-1.41656 157.5,-1.41656"/>
<text text-anchor="middle" x="193" y="-8.41656" font-family="Helvetica,sans-Serif" font-size="10.00">Settings.cpp</text>
</a>
</g>
</g>
<!-- Node2&#45;&gt;Node5 -->
<g id="edge3" class="edge"><title>Node2&#45;&gt;Node5</title>
<path fill="none" stroke="midnightblue" d="M193,-46.7211C193,-37.8268 193,-27.6964 193,-20.6676"/>
<polygon fill="midnightblue" stroke="midnightblue" points="189.5,-46.9995 193,-56.9996 196.5,-46.9996 189.5,-46.9995"/>
</g>
<!-- Node6 -->
<g id="node5" class="node"><title>Node6</title>
<g id="a_node5"><a xlink:href="_yenot_8cpp.html" target="_top" xlink:title="Основной задачей нашего проекта является разработка самообучающегося приложения для выделения и распо...">
<polygon fill="white" stroke="black" points="246.5,-1.41656 246.5,-20.4166 307.5,-20.4166 307.5,-1.41656 246.5,-1.41656"/>
<text text-anchor="middle" x="277" y="-8.41656" font-family="Helvetica,sans-Serif" font-size="10.00">Yenot.cpp</text>
</a>
</g>
</g>
<!-- Node2&#45;&gt;Node6 -->
<g id="edge4" class="edge"><title>Node2&#45;&gt;Node6</title>
<path fill="none" stroke="midnightblue" d="M214.932,-51.8171C230.335,-41.9152 250.446,-28.9871 263.537,-20.5711"/>
<polygon fill="midnightblue" stroke="midnightblue" points="213.015,-48.8888 206.496,-57.2405 216.801,-54.777 213.015,-48.8888"/>
</g>
<!-- Node7 -->
<g id="node6" class="node"><title>Node7</title>
<g id="a_node6"><a xlink:href="tests_2src_2server_2_settings_8cpp.html" target="_top" xlink:title="Settings.cpp">
<polygon fill="white" stroke="black" points="325.5,-1.41656 325.5,-20.4166 396.5,-20.4166 396.5,-1.41656 325.5,-1.41656"/>
<text text-anchor="middle" x="361" y="-8.41656" font-family="Helvetica,sans-Serif" font-size="10.00">Settings.cpp</text>
</a>
</g>
</g>
<!-- Node2&#45;&gt;Node7 -->
<g id="edge5" class="edge"><title>Node2&#45;&gt;Node7</title>
<path fill="none" stroke="midnightblue" d="M229.386,-54.221C261.042,-44.046 306.168,-29.5411 334.504,-20.433"/>
<polygon fill="midnightblue" stroke="midnightblue" points="228.069,-50.9678 219.62,-57.3601 230.211,-57.632 228.069,-50.9678"/>
</g>
<!-- Node7&#45;&gt;Node7 -->
<g id="edge6" class="edge"><title>Node7&#45;&gt;Node7</title>
<path fill="none" stroke="midnightblue" d="M393.79,-21.4127C405.236,-21.5503 414.5,-18.0516 414.5,-10.9166 414.5,-1.78375 399.322,1.39133 383.818,-1.39133"/>
<polygon fill="midnightblue" stroke="midnightblue" points="394.11,-17.9273 383.818,-20.4418 393.432,-24.8944 394.11,-17.9273"/>
</g>
</g>
</svg>
