<?xml version="1.0" encoding="UTF-8" standalone="no"?>
<!DOCTYPE svg PUBLIC "-//W3C//DTD SVG 1.1//EN"
 "http://www.w3.org/Graphics/SVG/1.1/DTD/svg11.dtd">
<!-- Generated by graphviz version 2.38.0 (20140413.2041)
 -->
<!-- Title: Logger.cpp Pages: 1 -->
<svg width="151pt" height="66pt"
 viewBox="0.00 0.00 151.00 66.00" xmlns="http://www.w3.org/2000/svg" xmlns:xlink="http://www.w3.org/1999/xlink">
<g id="graph0" class="graph" transform="scale(1 1) rotate(0) translate(4 62)">
<title>Logger.cpp</title>
<polygon fill="white" stroke="none" points="-4,4 -4,-62 147,-62 147,4 -4,4"/>
<!-- Node2 -->
<g id="node1" class="node"><title>Node2</title>
<g id="a_node1"><a xlink:href="group__test.html" target="_top" xlink:title="Модуль тестирвания ">
<polygon fill="white" stroke="black" points="3.5,-38.5 3.5,-57.5 38.5,-57.5 38.5,-38.5 3.5,-38.5"/>
<text text-anchor="middle" x="21" y="-45.5" font-family="Helvetica,sans-Serif" font-size="10.00">Test</text>
</a>
</g>
</g>
<!-- Node0 -->
<g id="node2" class="node"><title>Node0</title>
<polygon fill="#bfbfbf" stroke="black" points="78,-19.5 78,-38.5 143,-38.5 143,-19.5 78,-19.5"/>
<text text-anchor="middle" x="110.5" y="-26.5" font-family="Helvetica,sans-Serif" font-size="10.00">Logger.cpp</text>
</g>
<!-- Node2&#45;&gt;Node0 -->
<g id="edge2" class="edge"><title>Node2&#45;&gt;Node0</title>
<path fill="none" stroke="black" d="M48.9375,-42.1507C58.0635,-40.1691 68.3407,-37.9374 77.8022,-35.8829"/>
<polygon fill="black" stroke="black" points="47.9004,-38.7943 38.8709,-44.3366 49.3859,-45.6348 47.9004,-38.7943"/>
</g>
<!-- Node1 -->
<g id="node3" class="node"><title>Node1</title>
<g id="a_node3"><a xlink:href="group__yenot.html" target="_top" xlink:title="Общие файлы ">
<polygon fill="white" stroke="black" points="0,-0.5 0,-19.5 42,-19.5 42,-0.5 0,-0.5"/>
<text text-anchor="middle" x="21" y="-7.5" font-family="Helvetica,sans-Serif" font-size="10.00">Yenot</text>
</a>
</g>
</g>
<!-- Node1&#45;&gt;Node0 -->
<g id="edge1" class="edge"><title>Node1&#45;&gt;Node0</title>
<path fill="none" stroke="black" d="M52.2236,-16.5628C60.4393,-18.3468 69.3609,-20.2841 77.663,-22.0868"/>
<polygon fill="black" stroke="black" points="52.8092,-13.1085 42.2942,-14.4067 51.3237,-19.9491 52.8092,-13.1085"/>
</g>
</g>
</svg>
