<?xml version="1.0" encoding="UTF-8" standalone="no"?>
<!DOCTYPE svg PUBLIC "-//W3C//DTD SVG 1.1//EN"
 "http://www.w3.org/Graphics/SVG/1.1/DTD/svg11.dtd">
<!-- Generated by graphviz version 2.38.0 (20140413.2041)
 -->
<!-- Title: Settings.cpp Pages: 1 -->
<svg width="157pt" height="66pt"
 viewBox="0.00 0.00 157.00 66.00" xmlns="http://www.w3.org/2000/svg" xmlns:xlink="http://www.w3.org/1999/xlink">
<g id="graph0" class="graph" transform="scale(1 1) rotate(0) translate(4 62)">
<title>Settings.cpp</title>
<polygon fill="white" stroke="none" points="-4,4 -4,-62 153,-62 153,4 -4,4"/>
<!-- Node0 -->
<g id="node1" class="node"><title>Node0</title>
<polygon fill="#bfbfbf" stroke="black" points="78,-19.5 78,-38.5 149,-38.5 149,-19.5 78,-19.5"/>
<text text-anchor="middle" x="113.5" y="-26.5" font-family="Helvetica,sans-Serif" font-size="10.00">Settings.cpp</text>
</g>
<!-- Node2 -->
<g id="node2" class="node"><title>Node2</title>
<g id="a_node2"><a xlink:href="group__test.html" target="_top" xlink:title="Модуль тестирвания ">
<polygon fill="white" stroke="black" points="3.5,-38.5 3.5,-57.5 38.5,-57.5 38.5,-38.5 3.5,-38.5"/>
<text text-anchor="middle" x="21" y="-45.5" font-family="Helvetica,sans-Serif" font-size="10.00">Test</text>
</a>
</g>
</g>
<!-- Node2&#45;&gt;Node0 -->
<g id="edge2" class="edge"><title>Node2&#45;&gt;Node0</title>
<path fill="none" stroke="black" d="M48.5976,-42.416C57.6872,-40.5077 67.994,-38.3438 77.6357,-36.3196"/>
<polygon fill="black" stroke="black" points="47.6666,-39.035 38.5991,-44.5151 49.1049,-45.8857 47.6666,-39.035"/>
</g>
<!-- Node1 -->
<g id="node3" class="node"><title>Node1</title>
<g id="a_node3"><a xlink:href="group__yenot.html" target="_top" xlink:title="Общие файлы ">
<polygon fill="white" stroke="black" points="0,-0.5 0,-19.5 42,-19.5 42,-0.5 0,-0.5"/>
<text text-anchor="middle" x="21" y="-7.5" font-family="Helvetica,sans-Serif" font-size="10.00">Yenot</text>
</a>
</g>
</g>
<!-- Node1&#45;&gt;Node0 -->
<g id="edge1" class="edge"><title>Node1&#45;&gt;Node0</title>
<path fill="none" stroke="black" d="M52.059,-16.3107C60.3343,-18.0481 69.3763,-19.9464 77.8863,-21.733"/>
<polygon fill="black" stroke="black" points="52.5907,-12.8461 42.0849,-14.2167 51.1524,-19.6968 52.5907,-12.8461"/>
</g>
</g>
</svg>
