<?xml version="1.0" encoding="UTF-8" standalone="no"?>
<!DOCTYPE svg PUBLIC "-//W3C//DTD SVG 1.1//EN"
 "http://www.w3.org/Graphics/SVG/1.1/DTD/svg11.dtd">
<!-- Generated by graphviz version 2.38.0 (20140413.2041)
 -->
<!-- Title: Core.cpp Pages: 1 -->
<svg width="137pt" height="66pt"
 viewBox="0.00 0.00 137.00 66.00" xmlns="http://www.w3.org/2000/svg" xmlns:xlink="http://www.w3.org/1999/xlink">
<g id="graph0" class="graph" transform="scale(1 1) rotate(0) translate(4 62)">
<title>Core.cpp</title>
<polygon fill="white" stroke="none" points="-4,4 -4,-62 133,-62 133,4 -4,4"/>
<!-- Node2 -->
<g id="node1" class="node"><title>Node2</title>
<g id="a_node1"><a xlink:href="group__test.html" target="_top" xlink:title="Модуль тестирвания ">
<polygon fill="white" stroke="black" points="1,-38.5 1,-57.5 36,-57.5 36,-38.5 1,-38.5"/>
<text text-anchor="middle" x="18.5" y="-45.5" font-family="Helvetica,sans-Serif" font-size="10.00">Test</text>
</a>
</g>
</g>
<!-- Node0 -->
<g id="node2" class="node"><title>Node0</title>
<polygon fill="#bfbfbf" stroke="black" points="73,-19.5 73,-38.5 129,-38.5 129,-19.5 73,-19.5"/>
<text text-anchor="middle" x="101" y="-26.5" font-family="Helvetica,sans-Serif" font-size="10.00">Core.cpp</text>
</g>
<!-- Node2&#45;&gt;Node0 -->
<g id="edge2" class="edge"><title>Node2&#45;&gt;Node0</title>
<path fill="none" stroke="black" d="M46.0833,-41.7257C54.6892,-39.6945 64.2409,-37.44 72.8849,-35.3998"/>
<polygon fill="black" stroke="black" points="45.1082,-38.3596 36.1797,-44.0632 46.7163,-45.1724 45.1082,-38.3596"/>
</g>
<!-- Node1 -->
<g id="node3" class="node"><title>Node1</title>
<g id="a_node3"><a xlink:href="group__core.html" target="_top" xlink:title="Работа с изображениями, xml(yaml) файлами ">
<polygon fill="white" stroke="black" points="0,-0.5 0,-19.5 37,-19.5 37,-0.5 0,-0.5"/>
<text text-anchor="middle" x="18.5" y="-7.5" font-family="Helvetica,sans-Serif" font-size="10.00">Core</text>
</a>
</g>
</g>
<!-- Node1&#45;&gt;Node0 -->
<g id="edge1" class="edge"><title>Node1&#45;&gt;Node0</title>
<path fill="none" stroke="black" d="M47.2572,-16.5514C55.4866,-18.4937 64.4894,-20.6186 72.6902,-22.5542"/>
<polygon fill="black" stroke="black" points="47.9022,-13.1075 37.3656,-14.2167 46.2941,-19.9203 47.9022,-13.1075"/>
</g>
</g>
</svg>
