<?xml version="1.0" encoding="UTF-8" standalone="no"?>
<!DOCTYPE svg PUBLIC "-//W3C//DTD SVG 1.1//EN"
 "http://www.w3.org/Graphics/SVG/1.1/DTD/svg11.dtd">
<!-- Generated by graphviz version 2.38.0 (20140413.2041)
 -->
<!-- Title: Core.cpp Pages: 1 -->
<svg width="424pt" height="140pt"
 viewBox="0.00 0.00 424.00 140.00" xmlns="http://www.w3.org/2000/svg" xmlns:xlink="http://www.w3.org/1999/xlink">
<g id="graph0" class="graph" transform="scale(1 1) rotate(0) translate(4 136)">
<title>Core.cpp</title>
<polygon fill="white" stroke="none" points="-4,4 -4,-136 420,-136 420,4 -4,4"/>
<!-- Node0 -->
<g id="node1" class="node"><title>Node0</title>
<polygon fill="#bfbfbf" stroke="black" points="180.5,-112.5 180.5,-131.5 236.5,-131.5 236.5,-112.5 180.5,-112.5"/>
<text text-anchor="middle" x="208.5" y="-119.5" font-family="Helvetica,sans-Serif" font-size="10.00">Core.cpp</text>
</g>
<!-- Node1 -->
<g id="node2" class="node"><title>Node1</title>
<polygon fill="white" stroke="#bfbfbf" points="0,-56.5 0,-75.5 65,-75.5 65,-56.5 0,-56.5"/>
<text text-anchor="middle" x="32.5" y="-63.5" font-family="Helvetica,sans-Serif" font-size="10.00">Windows.h</text>
</g>
<!-- Node0&#45;&gt;Node1 -->
<g id="edge1" class="edge"><title>Node0&#45;&gt;Node1</title>
<path fill="none" stroke="midnightblue" d="M180.612,-112.444C150.746,-103.28 103.185,-88.6876 70.044,-78.5192"/>
<polygon fill="midnightblue" stroke="midnightblue" points="70.844,-75.1037 60.2572,-75.5164 68.7907,-81.7958 70.844,-75.1037"/>
</g>
<!-- Node2 -->
<g id="node3" class="node"><title>Node2</title>
<polygon fill="white" stroke="#bfbfbf" points="83,-56.5 83,-75.5 132,-75.5 132,-56.5 83,-56.5"/>
<text text-anchor="middle" x="107.5" y="-63.5" font-family="Helvetica,sans-Serif" font-size="10.00">direct.h</text>
</g>
<!-- Node0&#45;&gt;Node2 -->
<g id="edge2" class="edge"><title>Node0&#45;&gt;Node2</title>
<path fill="none" stroke="midnightblue" d="M192.273,-112.324C176.149,-103.703 151.2,-90.3643 132.536,-80.3855"/>
<polygon fill="midnightblue" stroke="midnightblue" points="134.156,-77.283 123.687,-75.6545 130.856,-83.456 134.156,-77.283"/>
</g>
<!-- Node3 -->
<g id="node4" class="node"><title>Node3</title>
<g id="a_node4"><a xlink:href="_yenot_8h.html" target="_top" xlink:title="Заголовочный файл с пространством имён, которое хранит в себе константы. ">
<polygon fill="white" stroke="black" points="150.5,-56.5 150.5,-75.5 200.5,-75.5 200.5,-56.5 150.5,-56.5"/>
<text text-anchor="middle" x="175.5" y="-63.5" font-family="Helvetica,sans-Serif" font-size="10.00">Yenot.h</text>
</a>
</g>
</g>
<!-- Node0&#45;&gt;Node3 -->
<g id="edge3" class="edge"><title>Node0&#45;&gt;Node3</title>
<path fill="none" stroke="midnightblue" d="M203.051,-112.083C198.486,-104.613 191.832,-93.7244 186.207,-84.5199"/>
<polygon fill="midnightblue" stroke="midnightblue" points="189.049,-82.4588 180.848,-75.7511 183.076,-86.109 189.049,-82.4588"/>
</g>
<!-- Node4 -->
<g id="node5" class="node"><title>Node4</title>
<g id="a_node5"><a xlink:href="_core_8h.html" target="_top" xlink:title="Ядро проекта. Содержит все главные и вспомогательные функции для определения марки автомобиля ...">
<polygon fill="white" stroke="black" points="219,-56.5 219,-75.5 264,-75.5 264,-56.5 219,-56.5"/>
<text text-anchor="middle" x="241.5" y="-63.5" font-family="Helvetica,sans-Serif" font-size="10.00">Core.h</text>
</a>
</g>
</g>
<!-- Node0&#45;&gt;Node4 -->
<g id="edge4" class="edge"><title>Node0&#45;&gt;Node4</title>
<path fill="none" stroke="midnightblue" d="M213.949,-112.083C218.514,-104.613 225.168,-93.7244 230.793,-84.5199"/>
<polygon fill="midnightblue" stroke="midnightblue" points="233.924,-86.109 236.152,-75.7511 227.951,-82.4588 233.924,-86.109"/>
</g>
<!-- Node6 -->
<g id="node7" class="node"><title>Node6</title>
<g id="a_node7"><a xlink:href="_logger_8h.html" target="_top" xlink:title="Заголовочный файл модуля логирования ">
<polygon fill="white" stroke="black" points="282.5,-56.5 282.5,-75.5 336.5,-75.5 336.5,-56.5 282.5,-56.5"/>
<text text-anchor="middle" x="309.5" y="-63.5" font-family="Helvetica,sans-Serif" font-size="10.00">Logger.h</text>
</a>
</g>
</g>
<!-- Node0&#45;&gt;Node6 -->
<g id="edge6" class="edge"><title>Node0&#45;&gt;Node6</title>
<path fill="none" stroke="midnightblue" d="M224.727,-112.324C240.851,-103.703 265.8,-90.3643 284.464,-80.3855"/>
<polygon fill="midnightblue" stroke="midnightblue" points="286.144,-83.456 293.313,-75.6545 282.844,-77.283 286.144,-83.456"/>
</g>
<!-- Node7 -->
<g id="node8" class="node"><title>Node7</title>
<g id="a_node8"><a xlink:href="_settings_8h.html" target="_top" xlink:title="Заголовочный файл модуля работы с ini файлами ">
<polygon fill="white" stroke="black" points="355,-56.5 355,-75.5 416,-75.5 416,-56.5 355,-56.5"/>
<text text-anchor="middle" x="385.5" y="-63.5" font-family="Helvetica,sans-Serif" font-size="10.00">Settings.h</text>
</a>
</g>
</g>
<!-- Node0&#45;&gt;Node7 -->
<g id="edge7" class="edge"><title>Node0&#45;&gt;Node7</title>
<path fill="none" stroke="midnightblue" d="M236.546,-112.444C266.582,-103.28 314.413,-88.6876 347.743,-78.5192"/>
<polygon fill="midnightblue" stroke="midnightblue" points="349.042,-81.7822 357.585,-75.5164 346.999,-75.0869 349.042,-81.7822"/>
</g>
<!-- Node5 -->
<g id="node6" class="node"><title>Node5</title>
<polygon fill="white" stroke="#bfbfbf" points="189.5,-0.5 189.5,-19.5 293.5,-19.5 293.5,-0.5 189.5,-0.5"/>
<text text-anchor="middle" x="241.5" y="-7.5" font-family="Helvetica,sans-Serif" font-size="10.00">opencv2/opencv.hpp</text>
</g>
<!-- Node4&#45;&gt;Node5 -->
<g id="edge5" class="edge"><title>Node4&#45;&gt;Node5</title>
<path fill="none" stroke="midnightblue" d="M241.5,-56.083C241.5,-49.0059 241.5,-38.8611 241.5,-29.9865"/>
<polygon fill="midnightblue" stroke="midnightblue" points="245,-29.751 241.5,-19.7511 238,-29.7511 245,-29.751"/>
</g>
<!-- Node8 -->
<g id="node9" class="node"><title>Node8</title>
<polygon fill="white" stroke="#bfbfbf" points="365,-0.5 365,-19.5 406,-19.5 406,-0.5 365,-0.5"/>
<text text-anchor="middle" x="385.5" y="-7.5" font-family="Helvetica,sans-Serif" font-size="10.00">string</text>
</g>
<!-- Node7&#45;&gt;Node8 -->
<g id="edge8" class="edge"><title>Node7&#45;&gt;Node8</title>
<path fill="none" stroke="midnightblue" d="M385.5,-56.083C385.5,-49.0059 385.5,-38.8611 385.5,-29.9865"/>
<polygon fill="midnightblue" stroke="midnightblue" points="389,-29.751 385.5,-19.7511 382,-29.7511 389,-29.751"/>
</g>
</g>
</svg>
