<?xml version="1.0" encoding="UTF-8" standalone="no"?>
<!DOCTYPE svg PUBLIC "-//W3C//DTD SVG 1.1//EN"
 "http://www.w3.org/Graphics/SVG/1.1/DTD/svg11.dtd">
<!-- Generated by graphviz version 2.38.0 (20140413.2041)
 -->
<!-- Title: Yenot.cpp Pages: 1 -->
<svg width="853pt" height="140pt"
 viewBox="0.00 0.00 853.00 140.00" xmlns="http://www.w3.org/2000/svg" xmlns:xlink="http://www.w3.org/1999/xlink">
<g id="graph0" class="graph" transform="scale(1 1) rotate(0) translate(4 136)">
<title>Yenot.cpp</title>
<polygon fill="white" stroke="none" points="-4,4 -4,-136 849,-136 849,4 -4,4"/>
<!-- Node0 -->
<g id="node1" class="node"><title>Node0</title>
<polygon fill="#bfbfbf" stroke="black" points="414.5,-112.5 414.5,-131.5 475.5,-131.5 475.5,-112.5 414.5,-112.5"/>
<text text-anchor="middle" x="445" y="-119.5" font-family="Helvetica,sans-Serif" font-size="10.00">Yenot.cpp</text>
</g>
<!-- Node1 -->
<g id="node2" class="node"><title>Node1</title>
<polygon fill="white" stroke="#bfbfbf" points="0,-56.5 0,-75.5 54,-75.5 54,-56.5 0,-56.5"/>
<text text-anchor="middle" x="27" y="-63.5" font-family="Helvetica,sans-Serif" font-size="10.00">iostream</text>
</g>
<!-- Node0&#45;&gt;Node1 -->
<g id="edge1" class="edge"><title>Node0&#45;&gt;Node1</title>
<path fill="none" stroke="midnightblue" d="M414.101,-118.707C350.451,-113.696 199.986,-100.369 64.2102,-76.0049"/>
<polygon fill="midnightblue" stroke="midnightblue" points="64.5111,-72.5023 54.046,-74.155 63.2577,-79.3892 64.5111,-72.5023"/>
</g>
<!-- Node2 -->
<g id="node3" class="node"><title>Node2</title>
<polygon fill="white" stroke="#bfbfbf" points="72.5,-56.5 72.5,-75.5 137.5,-75.5 137.5,-56.5 72.5,-56.5"/>
<text text-anchor="middle" x="105" y="-63.5" font-family="Helvetica,sans-Serif" font-size="10.00">Windows.h</text>
</g>
<!-- Node0&#45;&gt;Node2 -->
<g id="edge2" class="edge"><title>Node0&#45;&gt;Node2</title>
<path fill="none" stroke="midnightblue" d="M414.439,-117.014C362.04,-110.044 251.477,-94.7469 147.554,-75.999"/>
<polygon fill="midnightblue" stroke="midnightblue" points="147.985,-72.52 137.52,-74.1741 146.733,-79.4071 147.985,-72.52"/>
</g>
<!-- Node3 -->
<g id="node4" class="node"><title>Node3</title>
<polygon fill="white" stroke="#bfbfbf" points="155.5,-56.5 155.5,-75.5 244.5,-75.5 244.5,-56.5 155.5,-56.5"/>
<text text-anchor="middle" x="200" y="-63.5" font-family="Helvetica,sans-Serif" font-size="10.00">opencv\highgui.h</text>
</g>
<!-- Node0&#45;&gt;Node3 -->
<g id="edge3" class="edge"><title>Node0&#45;&gt;Node3</title>
<path fill="none" stroke="midnightblue" d="M414.466,-114.27C372.824,-105.092 297.768,-88.5489 248.412,-77.6704"/>
<polygon fill="midnightblue" stroke="midnightblue" points="249.115,-74.2414 238.596,-75.5069 247.608,-81.0774 249.115,-74.2414"/>
</g>
<!-- Node4 -->
<g id="node5" class="node"><title>Node4</title>
<polygon fill="white" stroke="#bfbfbf" points="262.5,-56.5 262.5,-75.5 329.5,-75.5 329.5,-56.5 262.5,-56.5"/>
<text text-anchor="middle" x="296" y="-63.5" font-family="Helvetica,sans-Serif" font-size="10.00">opencv\cv.h</text>
</g>
<!-- Node0&#45;&gt;Node4 -->
<g id="edge4" class="edge"><title>Node0&#45;&gt;Node4</title>
<path fill="none" stroke="midnightblue" d="M421.391,-112.444C396.542,-103.438 357.226,-89.1891 329.246,-79.049"/>
<polygon fill="midnightblue" stroke="midnightblue" points="330.093,-75.6332 319.499,-75.5164 327.708,-82.2144 330.093,-75.6332"/>
</g>
<!-- Node5 -->
<g id="node6" class="node"><title>Node5</title>
<polygon fill="white" stroke="#bfbfbf" points="348,-56.5 348,-75.5 452,-75.5 452,-56.5 348,-56.5"/>
<text text-anchor="middle" x="400" y="-63.5" font-family="Helvetica,sans-Serif" font-size="10.00">opencv2\opencv.hpp</text>
</g>
<!-- Node0&#45;&gt;Node5 -->
<g id="edge5" class="edge"><title>Node0&#45;&gt;Node5</title>
<path fill="none" stroke="midnightblue" d="M437.569,-112.083C431.147,-104.377 421.694,-93.0333 413.878,-83.6531"/>
<polygon fill="midnightblue" stroke="midnightblue" points="416.383,-81.1927 407.293,-75.7511 411.006,-85.674 416.383,-81.1927"/>
</g>
<!-- Node6 -->
<g id="node7" class="node"><title>Node6</title>
<polygon fill="white" stroke="#bfbfbf" points="470.5,-56.5 470.5,-75.5 511.5,-75.5 511.5,-56.5 470.5,-56.5"/>
<text text-anchor="middle" x="491" y="-63.5" font-family="Helvetica,sans-Serif" font-size="10.00">ctime</text>
</g>
<!-- Node0&#45;&gt;Node6 -->
<g id="edge6" class="edge"><title>Node0&#45;&gt;Node6</title>
<path fill="none" stroke="midnightblue" d="M452.596,-112.083C459.227,-104.298 469.021,-92.8015 477.058,-83.3665"/>
<polygon fill="midnightblue" stroke="midnightblue" points="479.725,-85.6332 483.545,-75.7511 474.396,-81.0939 479.725,-85.6332"/>
</g>
<!-- Node7 -->
<g id="node8" class="node"><title>Node7</title>
<polygon fill="white" stroke="#bfbfbf" points="529.5,-56.5 529.5,-75.5 590.5,-75.5 590.5,-56.5 529.5,-56.5"/>
<text text-anchor="middle" x="560" y="-63.5" font-family="Helvetica,sans-Serif" font-size="10.00">filesystem</text>
</g>
<!-- Node0&#45;&gt;Node7 -->
<g id="edge7" class="edge"><title>Node0&#45;&gt;Node7</title>
<path fill="none" stroke="midnightblue" d="M463.222,-112.444C481.896,-103.675 511.156,-89.9355 532.617,-79.8579"/>
<polygon fill="midnightblue" stroke="midnightblue" points="534.299,-82.935 541.863,-75.5164 531.324,-76.5988 534.299,-82.935"/>
</g>
<!-- Node8 -->
<g id="node9" class="node"><title>Node8</title>
<g id="a_node9"><a xlink:href="$_yenot_8h.html" xlink:title=":D ">
<polygon fill="white" stroke="black" points="609,-56.5 609,-75.5 659,-75.5 659,-56.5 609,-56.5"/>
<text text-anchor="middle" x="634" y="-63.5" font-family="Helvetica,sans-Serif" font-size="10.00">Yenot.h</text>
</a>
</g>
</g>
<!-- Node0&#45;&gt;Node8 -->
<g id="edge8" class="edge"><title>Node0&#45;&gt;Node8</title>
<path fill="none" stroke="midnightblue" d="M474.948,-112.444C508.579,-102.835 563.105,-87.2558 598.76,-77.0686"/>
<polygon fill="midnightblue" stroke="midnightblue" points="600.075,-80.3329 608.729,-74.2203 598.152,-73.6023 600.075,-80.3329"/>
</g>
<!-- Node10 -->
<g id="node11" class="node"><title>Node10</title>
<g id="a_node11"><a xlink:href="$_core_8h.html" xlink:title="ќписание ">
<polygon fill="white" stroke="black" points="677,-56.5 677,-75.5 753,-75.5 753,-56.5 677,-56.5"/>
<text text-anchor="middle" x="715" y="-63.5" font-family="Helvetica,sans-Serif" font-size="10.00">..\core\Core.h</text>
</a>
</g>
</g>
<!-- Node0&#45;&gt;Node10 -->
<g id="edge10" class="edge"><title>Node0&#45;&gt;Node10</title>
<path fill="none" stroke="midnightblue" d="M475.71,-114.858C522.422,-105.516 611.728,-87.6543 667.044,-76.5912"/>
<polygon fill="midnightblue" stroke="midnightblue" points="667.84,-80.0015 676.959,-74.6082 666.467,-73.1374 667.84,-80.0015"/>
</g>
<!-- Node11 -->
<g id="node12" class="node"><title>Node11</title>
<g id="a_node12"><a xlink:href="$_logger_8h.html" xlink:title="Заголовочный файл модуля логирования ">
<polygon fill="white" stroke="black" points="771,-56.5 771,-75.5 845,-75.5 845,-56.5 771,-56.5"/>
<text text-anchor="middle" x="808" y="-63.5" font-family="Helvetica,sans-Serif" font-size="10.00">..\io\Logger.h</text>
</a>
</g>
</g>
<!-- Node0&#45;&gt;Node11 -->
<g id="edge12" class="edge"><title>Node0&#45;&gt;Node11</title>
<path fill="none" stroke="midnightblue" d="M475.684,-117.185C530.716,-110.227 650.047,-94.6105 760.865,-76.1185"/>
<polygon fill="midnightblue" stroke="midnightblue" points="761.592,-79.5455 770.873,-74.4365 760.431,-72.6423 761.592,-79.5455"/>
</g>
<!-- Node9 -->
<g id="node10" class="node"><title>Node9</title>
<polygon fill="white" stroke="#bfbfbf" points="622,-0.5 622,-19.5 726,-19.5 726,-0.5 622,-0.5"/>
<text text-anchor="middle" x="674" y="-7.5" font-family="Helvetica,sans-Serif" font-size="10.00">opencv2/opencv.hpp</text>
</g>
<!-- Node8&#45;&gt;Node9 -->
<g id="edge9" class="edge"><title>Node8&#45;&gt;Node9</title>
<path fill="none" stroke="midnightblue" d="M640.605,-56.083C646.255,-48.4554 654.545,-37.2645 661.451,-27.9408"/>
<polygon fill="midnightblue" stroke="midnightblue" points="664.378,-29.87 667.518,-19.7511 658.753,-25.7034 664.378,-29.87"/>
</g>
<!-- Node10&#45;&gt;Node9 -->
<g id="edge11" class="edge"><title>Node10&#45;&gt;Node9</title>
<path fill="none" stroke="midnightblue" d="M708.23,-56.083C702.438,-48.4554 693.942,-37.2645 686.862,-27.9408"/>
<polygon fill="midnightblue" stroke="midnightblue" points="689.479,-25.5991 680.644,-19.7511 683.904,-29.8321 689.479,-25.5991"/>
</g>
</g>
</svg>
