<?xml version="1.0" encoding="UTF-8" standalone="no"?>
<!DOCTYPE svg PUBLIC "-//W3C//DTD SVG 1.1//EN"
 "http://www.w3.org/Graphics/SVG/1.1/DTD/svg11.dtd">
<!-- Generated by graphviz version 2.38.0 (20140413.2041)
 -->
<!-- Title: Yenot.cpp Pages: 1 -->
<svg width="398pt" height="140pt"
 viewBox="0.00 0.00 397.50 140.00" xmlns="http://www.w3.org/2000/svg" xmlns:xlink="http://www.w3.org/1999/xlink">
<g id="graph0" class="graph" transform="scale(1 1) rotate(0) translate(4 136)">
<title>Yenot.cpp</title>
<polygon fill="white" stroke="none" points="-4,4 -4,-136 393.5,-136 393.5,4 -4,4"/>
<!-- Node0 -->
<g id="node1" class="node"><title>Node0</title>
<polygon fill="#bfbfbf" stroke="black" points="156,-112.5 156,-131.5 217,-131.5 217,-112.5 156,-112.5"/>
<text text-anchor="middle" x="186.5" y="-119.5" font-family="Helvetica,sans-Serif" font-size="10.00">Yenot.cpp</text>
</g>
<!-- Node1 -->
<g id="node2" class="node"><title>Node1</title>
<g id="a_node2"><a xlink:href="$_yenot_8h.html" xlink:title="Заголовочный файл с пространством имён, которое хранит в себе константы. ">
<polygon fill="white" stroke="black" points="0,-56.5 0,-75.5 81,-75.5 81,-56.5 0,-56.5"/>
<text text-anchor="middle" x="40.5" y="-63.5" font-family="Helvetica,sans-Serif" font-size="10.00">..\core\Yenot.h</text>
</a>
</g>
</g>
<!-- Node0&#45;&gt;Node1 -->
<g id="edge1" class="edge"><title>Node0&#45;&gt;Node1</title>
<path fill="none" stroke="midnightblue" d="M163.366,-112.444C139.018,-103.438 100.493,-89.1891 73.077,-79.049"/>
<polygon fill="midnightblue" stroke="midnightblue" points="74.1191,-75.7028 63.5259,-75.5164 71.6908,-82.2681 74.1191,-75.7028"/>
</g>
<!-- Node2 -->
<g id="node3" class="node"><title>Node2</title>
<g id="a_node3"><a xlink:href="$_core_8h.html" xlink:title="Ядро проекта. Содержит все главные и вспомогательные функции для определения марки автомобиля ...">
<polygon fill="white" stroke="black" points="99.5,-56.5 99.5,-75.5 175.5,-75.5 175.5,-56.5 99.5,-56.5"/>
<text text-anchor="middle" x="137.5" y="-63.5" font-family="Helvetica,sans-Serif" font-size="10.00">..\core\Core.h</text>
</a>
</g>
</g>
<!-- Node0&#45;&gt;Node2 -->
<g id="edge2" class="edge"><title>Node0&#45;&gt;Node2</title>
<path fill="none" stroke="midnightblue" d="M178.409,-112.083C171.345,-104.298 160.912,-92.8015 152.351,-83.3665"/>
<polygon fill="midnightblue" stroke="midnightblue" points="154.753,-80.8047 145.441,-75.7511 149.569,-85.5087 154.753,-80.8047"/>
</g>
<!-- Node4 -->
<g id="node5" class="node"><title>Node4</title>
<g id="a_node5"><a xlink:href="$_logger_8h.html" xlink:title="Заголовочный файл модуля логирования ">
<polygon fill="white" stroke="black" points="194,-56.5 194,-75.5 279,-75.5 279,-56.5 194,-56.5"/>
<text text-anchor="middle" x="236.5" y="-63.5" font-family="Helvetica,sans-Serif" font-size="10.00">..\core\Logger.h</text>
</a>
</g>
</g>
<!-- Node0&#45;&gt;Node4 -->
<g id="edge4" class="edge"><title>Node0&#45;&gt;Node4</title>
<path fill="none" stroke="midnightblue" d="M194.756,-112.083C201.965,-104.298 212.61,-92.8015 221.346,-83.3665"/>
<polygon fill="midnightblue" stroke="midnightblue" points="224.171,-85.4666 228.397,-75.7511 219.035,-80.7108 224.171,-85.4666"/>
</g>
<!-- Node5 -->
<g id="node6" class="node"><title>Node5</title>
<g id="a_node6"><a xlink:href="$_settings_8h.html" xlink:title="Заголовочный файл модуля работы с ini файлами ">
<polygon fill="white" stroke="black" points="297.5,-56.5 297.5,-75.5 389.5,-75.5 389.5,-56.5 297.5,-56.5"/>
<text text-anchor="middle" x="343.5" y="-63.5" font-family="Helvetica,sans-Serif" font-size="10.00">..\core\Settings.h</text>
</a>
</g>
</g>
<!-- Node0&#45;&gt;Node5 -->
<g id="edge5" class="edge"><title>Node0&#45;&gt;Node5</title>
<path fill="none" stroke="midnightblue" d="M211.377,-112.444C237.789,-103.359 279.715,-88.9388 309.242,-78.7831"/>
<polygon fill="midnightblue" stroke="midnightblue" points="310.421,-82.0787 318.739,-75.5164 308.145,-75.4593 310.421,-82.0787"/>
</g>
<!-- Node3 -->
<g id="node4" class="node"><title>Node3</title>
<polygon fill="white" stroke="#bfbfbf" points="85.5,-0.5 85.5,-19.5 189.5,-19.5 189.5,-0.5 85.5,-0.5"/>
<text text-anchor="middle" x="137.5" y="-7.5" font-family="Helvetica,sans-Serif" font-size="10.00">opencv2/opencv.hpp</text>
</g>
<!-- Node2&#45;&gt;Node3 -->
<g id="edge3" class="edge"><title>Node2&#45;&gt;Node3</title>
<path fill="none" stroke="midnightblue" d="M137.5,-56.083C137.5,-49.0059 137.5,-38.8611 137.5,-29.9865"/>
<polygon fill="midnightblue" stroke="midnightblue" points="141,-29.751 137.5,-19.7511 134,-29.7511 141,-29.751"/>
</g>
<!-- Node6 -->
<g id="node7" class="node"><title>Node6</title>
<polygon fill="white" stroke="#bfbfbf" points="323,-0.5 323,-19.5 364,-19.5 364,-0.5 323,-0.5"/>
<text text-anchor="middle" x="343.5" y="-7.5" font-family="Helvetica,sans-Serif" font-size="10.00">string</text>
</g>
<!-- Node5&#45;&gt;Node6 -->
<g id="edge6" class="edge"><title>Node5&#45;&gt;Node6</title>
<path fill="none" stroke="midnightblue" d="M343.5,-56.083C343.5,-49.0059 343.5,-38.8611 343.5,-29.9865"/>
<polygon fill="midnightblue" stroke="midnightblue" points="347,-29.751 343.5,-19.7511 340,-29.7511 347,-29.751"/>
</g>
</g>
</svg>
