<?xml version="1.0" encoding="UTF-8" standalone="no"?>
<!DOCTYPE svg PUBLIC "-//W3C//DTD SVG 1.1//EN"
 "http://www.w3.org/Graphics/SVG/1.1/DTD/svg11.dtd">
<!-- Generated by graphviz version 2.38.0 (20140413.2041)
 -->
<!-- Title: YenotDatabase.cpp Pages: 1 -->
<svg width="221pt" height="140pt"
 viewBox="0.00 0.00 221.00 140.00" xmlns="http://www.w3.org/2000/svg" xmlns:xlink="http://www.w3.org/1999/xlink">
<g id="graph0" class="graph" transform="scale(1 1) rotate(0) translate(4 136)">
<title>YenotDatabase.cpp</title>
<polygon fill="white" stroke="none" points="-4,4 -4,-136 217,-136 217,4 -4,4"/>
<!-- Node0 -->
<g id="node1" class="node"><title>Node0</title>
<polygon fill="#bfbfbf" stroke="black" points="53.5,-112.5 53.5,-131.5 155.5,-131.5 155.5,-112.5 53.5,-112.5"/>
<text text-anchor="middle" x="104.5" y="-119.5" font-family="Helvetica,sans-Serif" font-size="10.00">YenotDatabase.cpp</text>
</g>
<!-- Node1 -->
<g id="node2" class="node"><title>Node1</title>
<g id="a_node2"><a xlink:href="$_yenot_8h.html" xlink:title="Заголовочный файл с пространством имён, которое хранит в себе константы. ">
<polygon fill="white" stroke="black" points="0,-56.5 0,-75.5 59,-75.5 59,-56.5 0,-56.5"/>
<text text-anchor="middle" x="29.5" y="-63.5" font-family="Helvetica,sans-Serif" font-size="10.00">..\Yenot.h</text>
</a>
</g>
</g>
<!-- Node0&#45;&gt;Node1 -->
<g id="edge1" class="edge"><title>Node0&#45;&gt;Node1</title>
<path fill="none" stroke="midnightblue" d="M92.45,-112.324C81.0369,-104.107 63.669,-91.6017 50.0651,-81.8069"/>
<polygon fill="midnightblue" stroke="midnightblue" points="51.9297,-78.8366 41.7693,-75.8339 47.8396,-84.5174 51.9297,-78.8366"/>
</g>
<!-- Node2 -->
<g id="node3" class="node"><title>Node2</title>
<g id="a_node3"><a xlink:href="$_core_8h.html" xlink:title="Ядро проекта. Содержит все главные и вспомогательные функции для определения марки автомобиля ...">
<polygon fill="white" stroke="black" points="77.5,-56.5 77.5,-75.5 131.5,-75.5 131.5,-56.5 77.5,-56.5"/>
<text text-anchor="middle" x="104.5" y="-63.5" font-family="Helvetica,sans-Serif" font-size="10.00">..\Core.h</text>
</a>
</g>
</g>
<!-- Node0&#45;&gt;Node2 -->
<g id="edge2" class="edge"><title>Node0&#45;&gt;Node2</title>
<path fill="none" stroke="midnightblue" d="M104.5,-112.083C104.5,-105.006 104.5,-94.8611 104.5,-85.9865"/>
<polygon fill="midnightblue" stroke="midnightblue" points="108,-85.751 104.5,-75.7511 101,-85.7511 108,-85.751"/>
</g>
<!-- Node4 -->
<g id="node5" class="node"><title>Node4</title>
<g id="a_node5"><a xlink:href="$_logger_8h.html" xlink:title="Заголовочный файл модуля логирования ">
<polygon fill="white" stroke="black" points="150,-56.5 150,-75.5 213,-75.5 213,-56.5 150,-56.5"/>
<text text-anchor="middle" x="181.5" y="-63.5" font-family="Helvetica,sans-Serif" font-size="10.00">..\Logger.h</text>
</a>
</g>
</g>
<!-- Node0&#45;&gt;Node4 -->
<g id="edge4" class="edge"><title>Node0&#45;&gt;Node4</title>
<path fill="none" stroke="midnightblue" d="M116.871,-112.324C128.658,-104.058 146.632,-91.4527 160.636,-81.6322"/>
<polygon fill="midnightblue" stroke="midnightblue" points="162.982,-84.2619 169.159,-75.6545 158.962,-78.5307 162.982,-84.2619"/>
</g>
<!-- Node3 -->
<g id="node4" class="node"><title>Node3</title>
<polygon fill="white" stroke="#bfbfbf" points="52.5,-0.5 52.5,-19.5 156.5,-19.5 156.5,-0.5 52.5,-0.5"/>
<text text-anchor="middle" x="104.5" y="-7.5" font-family="Helvetica,sans-Serif" font-size="10.00">opencv2/opencv.hpp</text>
</g>
<!-- Node2&#45;&gt;Node3 -->
<g id="edge3" class="edge"><title>Node2&#45;&gt;Node3</title>
<path fill="none" stroke="midnightblue" d="M104.5,-56.083C104.5,-49.0059 104.5,-38.8611 104.5,-29.9865"/>
<polygon fill="midnightblue" stroke="midnightblue" points="108,-29.751 104.5,-19.7511 101,-29.7511 108,-29.751"/>
</g>
</g>
</svg>
