<?xml version="1.0" encoding="UTF-8" standalone="no"?>
<!DOCTYPE svg PUBLIC "-//W3C//DTD SVG 1.1//EN"
 "http://www.w3.org/Graphics/SVG/1.1/DTD/svg11.dtd">
<!-- Generated by graphviz version 2.38.0 (20140413.2041)
 -->
<!-- Title: Yenot.h Pages: 1 -->
<svg width="436pt" height="84pt"
 viewBox="0.00 0.00 435.50 84.00" xmlns="http://www.w3.org/2000/svg" xmlns:xlink="http://www.w3.org/1999/xlink">
<g id="graph0" class="graph" transform="scale(1 1) rotate(0) translate(4 80)">
<title>Yenot.h</title>
<polygon fill="white" stroke="none" points="-4,4 -4,-80 431.5,-80 431.5,4 -4,4"/>
<!-- Node1 -->
<g id="node1" class="node"><title>Node1</title>
<polygon fill="#bfbfbf" stroke="black" points="202,-56.5 202,-75.5 252,-75.5 252,-56.5 202,-56.5"/>
<text text-anchor="middle" x="227" y="-63.5" font-family="Helvetica,sans-Serif" font-size="10.00">Yenot.h</text>
</g>
<!-- Node2 -->
<g id="node2" class="node"><title>Node2</title>
<g id="a_node2"><a xlink:href="$_core_8cpp.html" xlink:title="Ядро проекта. Содержит все главные и вспомогательные функции для определения марки автомобиля ...">
<polygon fill="white" stroke="black" points="0,-0.5 0,-19.5 56,-19.5 56,-0.5 0,-0.5"/>
<text text-anchor="middle" x="28" y="-7.5" font-family="Helvetica,sans-Serif" font-size="10.00">Core.cpp</text>
</a>
</g>
</g>
<!-- Node1&#45;&gt;Node2 -->
<g id="edge1" class="edge"><title>Node1&#45;&gt;Node2</title>
<path fill="none" stroke="midnightblue" d="M192.017,-55.5073C153.371,-45.0202 91.8947,-28.3383 56.2017,-18.6527"/>
<polygon fill="midnightblue" stroke="midnightblue" points="191.229,-58.9198 201.797,-58.1609 193.062,-52.1641 191.229,-58.9198"/>
</g>
<!-- Node3 -->
<g id="node3" class="node"><title>Node3</title>
<g id="a_node3"><a xlink:href="$_yenot_database_8cpp.html" xlink:title="Удобное добавление trainhaar.xml файлов ">
<polygon fill="white" stroke="black" points="74,-0.5 74,-19.5 176,-19.5 176,-0.5 74,-0.5"/>
<text text-anchor="middle" x="125" y="-7.5" font-family="Helvetica,sans-Serif" font-size="10.00">YenotDatabase.cpp</text>
</a>
</g>
</g>
<!-- Node1&#45;&gt;Node3 -->
<g id="edge2" class="edge"><title>Node1&#45;&gt;Node3</title>
<path fill="none" stroke="midnightblue" d="M201.669,-51.5895C182.81,-41.6052 157.616,-28.2672 141.347,-19.6545"/>
<polygon fill="midnightblue" stroke="midnightblue" points="200.136,-54.7383 210.612,-56.324 203.412,-48.5518 200.136,-54.7383"/>
</g>
<!-- Node4 -->
<g id="node4" class="node"><title>Node4</title>
<g id="a_node4"><a xlink:href="$_logger_8cpp.html" xlink:title="Модуль логирования. Поддерживает логирование со временем и логирование с различными уровнями...">
<polygon fill="white" stroke="black" points="194.5,-0.5 194.5,-19.5 259.5,-19.5 259.5,-0.5 194.5,-0.5"/>
<text text-anchor="middle" x="227" y="-7.5" font-family="Helvetica,sans-Serif" font-size="10.00">Logger.cpp</text>
</a>
</g>
</g>
<!-- Node1&#45;&gt;Node4 -->
<g id="edge3" class="edge"><title>Node1&#45;&gt;Node4</title>
<path fill="none" stroke="midnightblue" d="M227,-45.8045C227,-36.9102 227,-26.7798 227,-19.7511"/>
<polygon fill="midnightblue" stroke="midnightblue" points="223.5,-46.083 227,-56.083 230.5,-46.083 223.5,-46.083"/>
</g>
<!-- Node5 -->
<g id="node5" class="node"><title>Node5</title>
<g id="a_node5"><a xlink:href="$_settings_8cpp.html" xlink:title="Модуль работы с ini файлами ">
<polygon fill="white" stroke="black" points="277.5,-0.5 277.5,-19.5 348.5,-19.5 348.5,-0.5 277.5,-0.5"/>
<text text-anchor="middle" x="313" y="-7.5" font-family="Helvetica,sans-Serif" font-size="10.00">Settings.cpp</text>
</a>
</g>
</g>
<!-- Node1&#45;&gt;Node5 -->
<g id="edge4" class="edge"><title>Node1&#45;&gt;Node5</title>
<path fill="none" stroke="midnightblue" d="M249.455,-50.9005C265.224,-40.9986 285.814,-28.0705 299.217,-19.6545"/>
<polygon fill="midnightblue" stroke="midnightblue" points="247.425,-48.0421 240.817,-56.324 251.148,-53.9704 247.425,-48.0421"/>
</g>
<!-- Node6 -->
<g id="node6" class="node"><title>Node6</title>
<g id="a_node6"><a xlink:href="$_yenot_8cpp.html" xlink:title="Основной задачей нашего проекта является разработка самообучающегося приложения для выделения и распо...">
<polygon fill="white" stroke="black" points="366.5,-0.5 366.5,-19.5 427.5,-19.5 427.5,-0.5 366.5,-0.5"/>
<text text-anchor="middle" x="397" y="-7.5" font-family="Helvetica,sans-Serif" font-size="10.00">Yenot.cpp</text>
</a>
</g>
</g>
<!-- Node1&#45;&gt;Node6 -->
<g id="edge5" class="edge"><title>Node1&#45;&gt;Node6</title>
<path fill="none" stroke="midnightblue" d="M261.94,-53.9015C294.021,-43.711 340.884,-28.8252 370.128,-19.536"/>
<polygon fill="midnightblue" stroke="midnightblue" points="260.555,-50.6689 252.084,-57.0321 262.674,-57.3404 260.555,-50.6689"/>
</g>
</g>
</svg>
