<?xml version="1.0" encoding="UTF-8" standalone="no"?>
<!DOCTYPE svg PUBLIC "-//W3C//DTD SVG 1.1//EN"
 "http://www.w3.org/Graphics/SVG/1.1/DTD/svg11.dtd">
<!-- Generated by graphviz version 2.38.0 (20140413.2041)
 -->
<!-- Title: src Pages: 1 -->
<svg width="182pt" height="159pt"
 viewBox="0.00 0.00 182.00 159.00" xmlns="http://www.w3.org/2000/svg" xmlns:xlink="http://www.w3.org/1999/xlink">
<g id="graph0" class="graph" transform="scale(1 1) rotate(0) translate(4 155)">
<title>src</title>
<polygon fill="white" stroke="none" points="-4,4 -4,-155 178,-155 178,4 -4,4"/>
<g id="clust1" class="cluster"><title>clusterdir_1f39728e99d76504aeda9ef790893834</title>
<g id="a_clust1"><a xlink:href="dir_1f39728e99d76504aeda9ef790893834.html" xlink:title="tests">
<polygon fill="#ddddee" stroke="black" points="8,-56 8,-143 166,-143 166,-56 8,-56"/>
<text text-anchor="middle" x="87" y="-131" font-family="Helvetica,sans-Serif" font-size="10.00">tests</text>
</a>
</g>
</g>
<g id="clust2" class="cluster"><title>clusterdir_47149ddf4d37e6ab9ee4bf65114eb69b</title>
<g id="a_clust2"><a xlink:href="dir_47149ddf4d37e6ab9ee4bf65114eb69b.html">
<polygon fill="#eeeeff" stroke="black" points="16,-64 16,-116 158,-116 158,-64 16,-64"/>
</a>
</g>
</g>
<!-- dir_47149ddf4d37e6ab9ee4bf65114eb69b -->
<g id="node1" class="node"><title>dir_47149ddf4d37e6ab9ee4bf65114eb69b</title>
<text text-anchor="middle" x="123" y="-87.5" font-family="Helvetica,sans-Serif" font-size="10.00">src</text>
</g>
<!-- dir_85eb7e850db59305492b283791b761af -->
<g id="node2" class="node"><title>dir_85eb7e850db59305492b283791b761af</title>
<g id="a_node2"><a xlink:href="dir_85eb7e850db59305492b283791b761af.html" xlink:title="server">
<polygon fill="white" stroke="black" points="78,-108 24,-108 24,-72 78,-72 78,-108"/>
<text text-anchor="middle" x="51" y="-87.5" font-family="Helvetica,sans-Serif" font-size="10.00">server</text>
</a>
</g>
</g>
<!-- dir_76f6fa3fd9e57b78c21cd37238297539 -->
<g id="node3" class="node"><title>dir_76f6fa3fd9e57b78c21cd37238297539</title>
<g id="a_node3"><a xlink:href="dir_76f6fa3fd9e57b78c21cd37238297539.html" xlink:title="server">
<polygon fill="white" stroke="red" points="78,-36 24,-36 24,-0 78,-0 78,-36"/>
<text text-anchor="middle" x="51" y="-15.5" font-family="Helvetica,sans-Serif" font-size="10.00">server</text>
</a>
</g>
</g>
<!-- dir_85eb7e850db59305492b283791b761af&#45;&gt;dir_76f6fa3fd9e57b78c21cd37238297539 -->
<g id="edge1" class="edge"><title>dir_85eb7e850db59305492b283791b761af&#45;&gt;dir_76f6fa3fd9e57b78c21cd37238297539</title>
<path fill="none" stroke="black" d="M51,-71.6966C51,-63.9827 51,-54.7125 51,-46.1124"/>
<polygon fill="black" stroke="black" points="54.5001,-46.1043 51,-36.1043 47.5001,-46.1044 54.5001,-46.1043"/>
<g id="a_edge1&#45;headlabel"><a xlink:href="dir_000005_000001.html" xlink:title="3">
<text text-anchor="middle" x="57.3393" y="-47.199" font-family="Helvetica,sans-Serif" font-size="10.00">3</text>
</a>
</g>
</g>
</g>
</svg>
