<?xml version="1.0" encoding="UTF-8" standalone="no"?>
<!DOCTYPE svg PUBLIC "-//W3C//DTD SVG 1.1//EN"
 "http://www.w3.org/Graphics/SVG/1.1/DTD/svg11.dtd">
<!-- Generated by graphviz version 2.38.0 (20140413.2041)
 -->
<!-- Title: Logger.cpp Pages: 1 -->
<svg width="288pt" height="140pt"
 viewBox="0.00 0.00 288.00 140.00" xmlns="http://www.w3.org/2000/svg" xmlns:xlink="http://www.w3.org/1999/xlink">
<g id="graph0" class="graph" transform="scale(1 1) rotate(0) translate(4 136)">
<title>Logger.cpp</title>
<polygon fill="white" stroke="none" points="-4,4 -4,-136 284,-136 284,4 -4,4"/>
<!-- Node0 -->
<g id="node1" class="node"><title>Node0</title>
<polygon fill="#bfbfbf" stroke="black" points="109,-112.5 109,-131.5 174,-131.5 174,-112.5 109,-112.5"/>
<text text-anchor="middle" x="141.5" y="-119.5" font-family="Helvetica,sans-Serif" font-size="10.00">Logger.cpp</text>
</g>
<!-- Node1 -->
<g id="node2" class="node"><title>Node1</title>
<polygon fill="white" stroke="#bfbfbf" points="0,-56.5 0,-75.5 65,-75.5 65,-56.5 0,-56.5"/>
<text text-anchor="middle" x="32.5" y="-63.5" font-family="Helvetica,sans-Serif" font-size="10.00">Windows.h</text>
</g>
<!-- Node0&#45;&gt;Node1 -->
<g id="edge1" class="edge"><title>Node0&#45;&gt;Node1</title>
<path fill="none" stroke="midnightblue" d="M123.987,-112.324C106.428,-103.625 79.1686,-90.1202 58.9688,-80.113"/>
<polygon fill="midnightblue" stroke="midnightblue" points="60.4837,-76.9575 49.9693,-75.6545 57.3762,-83.23 60.4837,-76.9575"/>
</g>
<!-- Node2 -->
<g id="node3" class="node"><title>Node2</title>
<polygon fill="white" stroke="#bfbfbf" points="83,-56.5 83,-75.5 132,-75.5 132,-56.5 83,-56.5"/>
<text text-anchor="middle" x="107.5" y="-63.5" font-family="Helvetica,sans-Serif" font-size="10.00">fstream</text>
</g>
<!-- Node0&#45;&gt;Node2 -->
<g id="edge2" class="edge"><title>Node0&#45;&gt;Node2</title>
<path fill="none" stroke="midnightblue" d="M135.886,-112.083C131.133,-104.534 124.182,-93.4948 118.348,-84.2298"/>
<polygon fill="midnightblue" stroke="midnightblue" points="121.3,-82.3486 113.01,-75.7511 115.376,-86.0783 121.3,-82.3486"/>
</g>
<!-- Node3 -->
<g id="node4" class="node"><title>Node3</title>
<g id="a_node4"><a xlink:href="$_yenot_8h.html" xlink:title="Заголовочный файл с пространством имён, которое хранит в себе константы. ">
<polygon fill="white" stroke="black" points="150.5,-56.5 150.5,-75.5 200.5,-75.5 200.5,-56.5 150.5,-56.5"/>
<text text-anchor="middle" x="175.5" y="-63.5" font-family="Helvetica,sans-Serif" font-size="10.00">Yenot.h</text>
</a>
</g>
</g>
<!-- Node0&#45;&gt;Node3 -->
<g id="edge3" class="edge"><title>Node0&#45;&gt;Node3</title>
<path fill="none" stroke="midnightblue" d="M147.114,-112.083C151.867,-104.534 158.818,-93.4948 164.652,-84.2298"/>
<polygon fill="midnightblue" stroke="midnightblue" points="167.624,-86.0783 169.99,-75.7511 161.7,-82.3486 167.624,-86.0783"/>
</g>
<!-- Node4 -->
<g id="node5" class="node"><title>Node4</title>
<g id="a_node5"><a xlink:href="$_settings_8h.html" xlink:title="Заголовочный файл модуля работы с ini файлами ">
<polygon fill="white" stroke="black" points="219,-56.5 219,-75.5 280,-75.5 280,-56.5 219,-56.5"/>
<text text-anchor="middle" x="249.5" y="-63.5" font-family="Helvetica,sans-Serif" font-size="10.00">Settings.h</text>
</a>
</g>
</g>
<!-- Node0&#45;&gt;Node4 -->
<g id="edge4" class="edge"><title>Node0&#45;&gt;Node4</title>
<path fill="none" stroke="midnightblue" d="M158.852,-112.324C176.172,-103.664 203.015,-90.2424 223.002,-80.249"/>
<polygon fill="midnightblue" stroke="midnightblue" points="224.812,-83.2572 232.191,-75.6545 221.681,-76.9962 224.812,-83.2572"/>
</g>
<!-- Node5 -->
<g id="node6" class="node"><title>Node5</title>
<polygon fill="white" stroke="#bfbfbf" points="229,-0.5 229,-19.5 270,-19.5 270,-0.5 229,-0.5"/>
<text text-anchor="middle" x="249.5" y="-7.5" font-family="Helvetica,sans-Serif" font-size="10.00">string</text>
</g>
<!-- Node4&#45;&gt;Node5 -->
<g id="edge5" class="edge"><title>Node4&#45;&gt;Node5</title>
<path fill="none" stroke="midnightblue" d="M249.5,-56.083C249.5,-49.0059 249.5,-38.8611 249.5,-29.9865"/>
<polygon fill="midnightblue" stroke="midnightblue" points="253,-29.751 249.5,-19.7511 246,-29.7511 253,-29.751"/>
</g>
</g>
</svg>
